<svg width="112" height="39" viewBox="0 0 112 39" fill="none" xmlns="http://www.w3.org/2000/svg">
<mask id="mask0_2366_1282" style="mask-type:luminance" maskUnits="userSpaceOnUse" x="0" y="0" width="112" height="38">
<path d="M111.409 0H0V37.5508H111.409V0Z" fill="white"/>
</mask>
<g mask="url(#mask0_2366_1282)">
<path d="M19.7462 14.5195H2.78496C1.32094 14.5195 0.142578 15.6997 0.142578 17.166V34.189C0.142578 35.6552 1.32094 36.8354 2.78496 36.8354H19.7462C21.2102 36.8354 22.3886 35.6552 22.3886 34.189V17.166C22.3886 15.6997 21.2102 14.5195 19.7462 14.5195ZM9.7123 30.5769C9.7123 31.0776 9.31951 31.4711 8.8196 31.4711H5.10598C4.60606 31.4711 4.21329 31.0776 4.21329 30.5769V19.5263C4.21329 19.0256 4.60606 18.6322 5.10598 18.6322H8.8196C9.31951 18.6322 9.7123 19.0256 9.7123 19.5263V30.5769ZM18.2822 25.4987C18.2822 25.9994 17.8894 26.3927 17.4252 26.3927H13.6759C13.176 26.3927 12.7832 25.9994 12.7832 25.4987V19.5263C12.7832 19.0256 13.176 18.6322 13.6759 18.6322H17.3895C17.8894 18.6322 18.2822 19.0256 18.2822 19.5263V25.4987Z" fill="url(#paint0_linear_2366_1282)"/>
<path d="M74.1288 36.9785C71.1293 36.9785 69.2725 35.548 69.2725 32.1505V14.5195H73.8431V31.5068C73.8431 32.4724 74.4858 32.83 75.2714 32.83C75.4857 32.83 75.7356 32.83 75.9499 32.7942V36.7639C75.3429 36.9069 74.7358 36.9785 74.1288 36.9785Z" fill="white"/>
<path d="M83.6991 36.9785C80.6996 36.9785 78.8428 35.548 78.8428 32.1505V14.5195H83.4135V31.5068C83.4135 32.4724 84.0561 32.83 84.8417 32.83C85.056 32.83 85.3059 32.83 85.5202 32.7942V36.7639C84.9131 36.9069 84.3061 36.9785 83.6991 36.9785Z" fill="white"/>
<path d="M87.6982 28.7883C87.6982 23.8173 90.5548 20.4199 95.4825 20.4199C100.411 20.4199 103.195 23.8173 103.195 28.7883C103.195 33.7594 100.375 37.2284 95.4825 37.2284C90.5905 37.2284 87.6982 33.7236 87.6982 28.7883ZM92.1616 28.7883C92.1616 31.2202 93.1615 33.1156 95.4825 33.1156C97.8035 33.1156 98.732 31.1845 98.732 28.7883C98.732 26.3923 97.7321 24.4968 95.4825 24.4968C93.233 24.4968 92.1616 26.3565 92.1616 28.7883Z" fill="white"/>
<path d="M55.4185 30.2553C56.7041 30.3983 57.9895 30.4699 59.2393 30.4699C62.7387 30.4699 65.6666 29.54 65.6666 26.1426C65.6666 22.8524 62.6315 20.3848 58.9893 20.3848C54.0973 20.3848 50.9551 23.9611 50.9551 28.8963C50.9551 34.0461 53.6688 37.1217 59.7749 37.1217C61.596 37.1574 63.3814 36.8356 65.0954 36.1918V32.3295C63.5242 32.8302 61.7389 33.3309 59.9535 33.3309C57.5253 33.3666 55.847 32.5441 55.4185 30.2553ZM58.9179 23.9253C60.2034 23.9253 61.2389 24.7836 61.2389 25.9996C61.2389 27.5373 59.5963 28.038 57.7396 28.038C56.954 28.038 56.1327 27.9665 55.3471 27.8592C55.4185 27.1082 55.6327 26.3929 55.9899 25.7135C56.5612 24.6048 57.7039 23.9253 58.9179 23.9253Z" fill="white"/>
<path d="M50.1405 14.8857L42.6089 37.0497H37.4948L29.9941 14.8857H34.7363L38.8896 28.0786C38.9722 28.3062 39.0858 28.7305 39.2305 29.3513C39.3958 29.9514 39.5611 30.593 39.7264 31.2759C39.8917 31.9381 40.0054 32.4969 40.0673 32.9522C40.1293 32.4969 40.2326 31.9381 40.3773 31.2759C40.5426 30.593 40.7079 29.9514 40.8732 29.3513C41.0385 28.7305 41.1521 28.3062 41.2141 28.0786L45.3984 14.8857H50.1405Z" fill="white"/>
<path d="M31.4682 0.279741L33.0502 5.25275H33.111L34.6962 0.279741H36.2303L33.9739 6.8252H32.1905L29.9309 0.279741H31.4682ZM38.402 0.279741V6.8252H37.0181V0.279741H38.402ZM41.8609 6.8252H39.5406V0.279741H41.8801C42.5384 0.279741 43.1052 0.410778 43.5803 0.672852C44.0555 0.932794 44.4209 1.30673 44.6766 1.79466C44.9344 2.28258 45.0633 2.86639 45.0633 3.54608C45.0633 4.22789 44.9344 4.81383 44.6766 5.30389C44.4209 5.79395 44.0534 6.17001 43.574 6.43208C43.0967 6.69416 42.5257 6.8252 41.8609 6.8252ZM40.9244 5.63947H41.8034C42.2124 5.63947 42.5566 5.56703 42.8357 5.42214C43.1169 5.27512 43.3279 5.04821 43.4685 4.74139C43.6112 4.43244 43.6826 4.034 43.6826 3.54608C43.6826 3.06241 43.6112 2.66717 43.4685 2.36035C43.3279 2.05353 43.118 1.82768 42.8389 1.68279C42.5597 1.53791 42.2156 1.46547 41.8066 1.46547H40.9244V5.63947ZM46.0884 6.8252V0.279741H47.4723V2.98038H50.2816V0.279741H51.6623V6.8252H50.2816V4.12136H47.4723V6.8252H46.0884ZM53.9315 6.8252H52.4485L54.7081 0.279741H56.4915L58.7479 6.8252H57.2649L55.6254 1.77548H55.5742L53.9315 6.8252ZM53.8388 4.2524H57.3416V5.33265H53.8388V4.2524ZM65.0105 0.279741V6.8252H63.8152L60.9675 2.70552H60.9196V6.8252H59.5357V0.279741H60.7502L63.5755 4.39622H63.633V0.279741H65.0105ZM69.7046 2.1622C69.6791 1.90439 69.5693 1.7041 69.3754 1.56135C69.1816 1.41859 68.9184 1.34721 68.586 1.34721C68.3602 1.34721 68.1695 1.37917 68.0139 1.44309C67.8584 1.50488 67.7391 1.59118 67.656 1.70197C67.575 1.81277 67.5345 1.93848 67.5345 2.0791C67.5303 2.19629 67.5548 2.29856 67.608 2.38592C67.6634 2.47328 67.7391 2.54892 67.835 2.61284C67.9308 2.67463 68.0416 2.72896 68.1673 2.77583C68.2931 2.82058 68.4273 2.85893 68.57 2.89089L69.1581 3.03152C69.4436 3.09544 69.7057 3.18066 69.9443 3.2872C70.183 3.39373 70.3896 3.52477 70.5644 3.68031C70.7391 3.83585 70.8744 4.01909 70.9703 4.23002C71.0683 4.44096 71.1183 4.68279 71.1205 4.95552C71.1183 5.35609 71.0161 5.70339 70.8137 5.99743C70.6134 6.28933 70.3236 6.51625 69.9443 6.67818C69.5672 6.83798 69.1123 6.91788 68.5796 6.91788C68.0512 6.91788 67.591 6.83691 67.199 6.67498C66.809 6.51305 66.5044 6.27335 66.2849 5.95588C66.0676 5.63627 65.9536 5.24103 65.9429 4.77015H67.282C67.297 4.98961 67.3598 5.17285 67.4706 5.31987C67.5835 5.46475 67.7338 5.57449 67.9213 5.64906C68.1109 5.7215 68.325 5.75772 68.5637 5.75772C68.798 5.75772 69.0015 5.72363 69.1741 5.65545C69.3488 5.58727 69.4841 5.49245 69.58 5.371C69.6759 5.24956 69.7238 5.11 69.7238 4.95233C69.7238 4.80531 69.6801 4.68173 69.5928 4.58159C69.5075 4.48145 69.3818 4.39622 69.2156 4.32591C69.0516 4.25559 68.8502 4.19167 68.6116 4.13414L67.8989 3.95517C67.347 3.82093 66.9113 3.61106 66.5917 3.32555C66.2721 3.04004 66.1134 2.65545 66.1155 2.17179C66.1134 1.77548 66.2188 1.42924 66.4319 1.13308C66.6471 0.836914 66.9422 0.605735 67.3172 0.439542C67.6922 0.273349 68.1183 0.190252 68.5956 0.190252C69.0814 0.190252 69.5054 0.273349 69.8676 0.439542C70.232 0.605735 70.5154 0.836914 70.7178 1.13308C70.9202 1.42924 71.0246 1.77228 71.031 2.1622H69.7046ZM72.0513 6.8252V0.279741H73.4352V2.98038H76.2445V0.279741H77.6252V6.8252H76.2445V4.12136H73.4352V6.8252H72.0513ZM82.8091 0.279741H84.193V4.53045C84.193 5.00772 84.079 5.42534 83.851 5.78329C83.6252 6.14125 83.3088 6.42037 82.9018 6.62065C82.4949 6.8188 82.0208 6.91788 81.4796 6.91788C80.9363 6.91788 80.4611 6.8188 80.0542 6.62065C79.6472 6.42037 79.3308 6.14125 79.1049 5.78329C78.8791 5.42534 78.7662 5.00772 78.7662 4.53045V0.279741H80.15V4.4122C80.15 4.66149 80.2044 4.88308 80.313 5.07697C80.4238 5.27086 80.5794 5.42321 80.7797 5.534C80.9799 5.6448 81.2132 5.7002 81.4796 5.7002C81.748 5.7002 81.9814 5.6448 82.1795 5.534C82.3798 5.42321 82.5343 5.27086 82.6429 5.07697C82.7537 4.88308 82.8091 4.66149 82.8091 4.4122V0.279741Z" fill="white"/>
</g>
<defs>
<linearGradient id="paint0_linear_2366_1282" x1="3469.97" y1="2357.69" x2="3469.97" y2="14.8943" gradientUnits="userSpaceOnUse">
<stop stop-color="white"/>
<stop offset="1" stop-color="white"/>
</linearGradient>
</defs>
</svg>
