<svg width="112" height="38" viewBox="0 0 112 38" fill="none" xmlns="http://www.w3.org/2000/svg">
<g clip-path="url(#clip0_2359_1263)">
<path d="M19.7502 14.5H2.78592C1.32164 14.5 0.143066 15.6786 0.143066 17.1429V34.1429C0.143066 35.6071 1.32164 36.7857 2.78592 36.7857H19.7502C21.2145 36.7857 22.3931 35.6071 22.3931 34.1429V17.1429C22.3931 15.6786 21.2145 14.5 19.7502 14.5ZM9.7145 30.5357C9.7145 31.0357 9.32164 31.4286 8.82164 31.4286H5.10735C4.60735 31.4286 4.2145 31.0357 4.2145 30.5357V19.5C4.2145 19 4.60735 18.6071 5.10735 18.6071H8.82164C9.32164 18.6071 9.7145 19 9.7145 19.5V30.5357ZM18.2859 25.4643C18.2859 25.9643 17.8931 26.3571 17.4288 26.3571H13.6788C13.1788 26.3571 12.7859 25.9643 12.7859 25.4643V19.5C12.7859 19 13.1788 18.6071 13.6788 18.6071H17.3931C17.8931 18.6071 18.2859 19 18.2859 19.5V25.4643Z" fill="url(#paint0_linear_2359_1263)"/>
<path d="M74.1428 36.9286C71.1428 36.9286 69.2856 35.5 69.2856 32.1071V14.5H73.8571V31.4643C73.8571 32.4286 74.4999 32.7857 75.2856 32.7857C75.4999 32.7857 75.7499 32.7857 75.9642 32.75V36.7143C75.3571 36.8571 74.7499 36.9286 74.1428 36.9286Z" fill="#253858"/>
<path d="M83.7146 36.9286C80.7146 36.9286 78.8574 35.5 78.8574 32.1071V14.5H83.4289V31.4643C83.4289 32.4286 84.0717 32.7857 84.8574 32.7857C85.0717 32.7857 85.3217 32.7857 85.536 32.75V36.7143C84.9288 36.8571 84.3217 36.9286 83.7146 36.9286Z" fill="#253858"/>
<path d="M87.7144 28.7497C87.7144 23.7854 90.5715 20.3926 95.5001 20.3926C100.429 20.3926 103.214 23.7854 103.214 28.7497C103.214 33.714 100.393 37.1783 95.5001 37.1783C90.6072 37.1783 87.7144 33.6783 87.7144 28.7497ZM92.1786 28.7497C92.1786 31.1783 93.1786 33.0711 95.5001 33.0711C97.8215 33.0711 98.7501 31.1426 98.7501 28.7497C98.7501 26.3569 97.7501 24.464 95.5001 24.464C93.2501 24.464 92.1786 26.3211 92.1786 28.7497Z" fill="#253858"/>
<path d="M55.4286 30.2146C56.7144 30.3574 58.0001 30.4289 59.2501 30.4289C62.7501 30.4289 65.6786 29.5003 65.6786 26.1074C65.6786 22.8217 62.6429 20.3574 59.0001 20.3574C54.1072 20.3574 50.9644 23.9289 50.9644 28.8574C50.9644 34.0003 53.6786 37.0717 59.7858 37.0717C61.6072 37.1074 63.3929 36.786 65.1072 36.1431V32.286C63.5358 32.786 61.7501 33.286 59.9644 33.286C57.5358 33.3217 55.8572 32.5003 55.4286 30.2146ZM58.9286 23.8931C60.2144 23.8931 61.2501 24.7503 61.2501 25.9646C61.2501 27.5003 59.6072 28.0003 57.7501 28.0003C56.9644 28.0003 56.1429 27.9289 55.3572 27.8217C55.4286 27.0717 55.6429 26.3574 56.0001 25.6789C56.5715 24.5717 57.7144 23.8931 58.9286 23.8931Z" fill="#253858"/>
<path d="M50.15 14.866L42.617 37H37.502L30 14.866H34.743L38.897 28.041C38.9797 28.2683 39.0933 28.692 39.238 29.312C39.4033 29.9113 39.5687 30.552 39.734 31.234C39.8993 31.8953 40.013 32.4533 40.075 32.908C40.137 32.4533 40.2403 31.8953 40.385 31.234C40.5503 30.552 40.7157 29.9113 40.881 29.312C41.0463 28.692 41.16 28.2683 41.222 28.041L45.407 14.866H50.15Z" fill="#253858"/>
<path d="M32.288 9L30 2.994H31.716L32.871 6.415C32.915 6.547 32.9517 6.68633 32.981 6.833C33.0177 6.97967 33.0433 7.12267 33.058 7.262C33.08 7.40133 33.0947 7.52967 33.102 7.647H33.146C33.1533 7.52233 33.168 7.39033 33.19 7.251C33.212 7.11167 33.2377 6.97233 33.267 6.833C33.3037 6.68633 33.344 6.547 33.388 6.415L34.543 2.994H36.259L33.971 9H32.288ZM38.7597 2.994V9H37.1207V2.994H38.7597ZM37.9457 0.639999C38.1877 0.639999 38.3967 0.698666 38.5727 0.816C38.7487 0.926 38.8367 1.135 38.8367 1.443C38.8367 1.74367 38.7487 1.95267 38.5727 2.07C38.3967 2.18733 38.1877 2.246 37.9457 2.246C37.6964 2.246 37.4837 2.18733 37.3077 2.07C37.139 1.95267 37.0547 1.74367 37.0547 1.443C37.0547 1.135 37.139 0.926 37.3077 0.816C37.4837 0.698666 37.6964 0.639999 37.9457 0.639999ZM42.3753 9.11C41.7079 9.11 41.1616 8.84967 40.7363 8.329C40.3183 7.801 40.1093 7.02733 40.1093 6.008C40.1093 4.98133 40.3219 4.204 40.7473 3.676C41.1726 3.148 41.7299 2.884 42.4193 2.884C42.7053 2.884 42.9583 2.92433 43.1783 3.005C43.3983 3.07833 43.5853 3.181 43.7393 3.313C43.9006 3.445 44.0363 3.59533 44.1463 3.764H44.2013C44.1793 3.64667 44.1536 3.478 44.1243 3.258C44.0949 3.03067 44.0803 2.79967 44.0803 2.565V0.639999H45.7193V9H44.4653L44.1463 8.219H44.0803C43.9776 8.38033 43.8456 8.53067 43.6843 8.67C43.5303 8.802 43.3469 8.90833 43.1343 8.989C42.9216 9.06967 42.6686 9.11 42.3753 9.11ZM42.9473 7.801C43.4019 7.801 43.7209 7.669 43.9043 7.405C44.0876 7.13367 44.1829 6.73033 44.1903 6.195V6.019C44.1903 5.43233 44.0986 4.985 43.9153 4.677C43.7393 4.369 43.4093 4.215 42.9253 4.215C42.5659 4.215 42.2836 4.37267 42.0783 4.688C41.8729 4.996 41.7703 5.44333 41.7703 6.03C41.7703 6.61667 41.8729 7.06033 42.0783 7.361C42.2836 7.65433 42.5733 7.801 42.9473 7.801ZM49.0722 2.345C49.0722 2.63833 49.0612 2.92067 49.0392 3.192C49.0245 3.46333 49.0099 3.654 48.9952 3.764H49.0832C49.2152 3.55867 49.3692 3.39367 49.5452 3.269C49.7212 3.137 49.9155 3.04167 50.1282 2.983C50.3482 2.917 50.5792 2.884 50.8212 2.884C51.2539 2.884 51.6315 2.961 51.9542 3.115C52.2769 3.269 52.5262 3.50733 52.7022 3.83C52.8855 4.15267 52.9772 4.57067 52.9772 5.084V9H51.3382V5.491C51.3382 5.05833 51.2575 4.73567 51.0962 4.523C50.9422 4.303 50.7002 4.193 50.3702 4.193C50.0402 4.193 49.7799 4.27 49.5892 4.424C49.4059 4.578 49.2739 4.80167 49.1932 5.095C49.1125 5.38833 49.0722 5.74767 49.0722 6.173V9H47.4332V0.639999H49.0722V2.345ZM57.1267 2.873C57.9334 2.873 58.5494 3.049 58.9747 3.401C59.4074 3.74567 59.6237 4.27733 59.6237 4.996V9H58.4797L58.1607 8.186H58.1167C57.948 8.39867 57.772 8.57467 57.5887 8.714C57.4127 8.85333 57.2074 8.95233 56.9727 9.011C56.7454 9.077 56.463 9.11 56.1257 9.11C55.7737 9.11 55.4547 9.044 55.1687 8.912C54.89 8.77267 54.67 8.56367 54.5087 8.285C54.3474 7.999 54.2667 7.63967 54.2667 7.207C54.2667 6.569 54.4904 6.09967 54.9377 5.799C55.385 5.491 56.056 5.32233 56.9507 5.293L57.9957 5.26V4.996C57.9957 4.68067 57.9114 4.44967 57.7427 4.303C57.5814 4.15633 57.354 4.083 57.0607 4.083C56.7674 4.083 56.4814 4.127 56.2027 4.215C55.924 4.29567 55.6454 4.39833 55.3667 4.523L54.8277 3.412C55.1504 3.24333 55.506 3.11133 55.8947 3.016C56.2907 2.92067 56.7014 2.873 57.1267 2.873ZM57.3577 6.239C56.8297 6.25367 56.463 6.349 56.2577 6.525C56.0524 6.701 55.9497 6.932 55.9497 7.218C55.9497 7.46733 56.023 7.647 56.1697 7.757C56.3164 7.85967 56.507 7.911 56.7417 7.911C57.0937 7.911 57.3907 7.80833 57.6327 7.603C57.8747 7.39033 57.9957 7.09333 57.9957 6.712V6.217L57.3577 6.239ZM64.7114 2.884C65.3567 2.884 65.8737 3.06 66.2624 3.412C66.651 3.75667 66.8454 4.314 66.8454 5.084V9H65.2064V5.491C65.2064 5.05833 65.1294 4.73567 64.9754 4.523C64.8214 4.303 64.5757 4.193 64.2384 4.193C63.7397 4.193 63.3987 4.36533 63.2154 4.71C63.032 5.04733 62.9404 5.535 62.9404 6.173V9H61.3014V2.994H62.5554L62.7754 3.764H62.8634C62.9954 3.55867 63.1567 3.39367 63.3474 3.269C63.538 3.137 63.7507 3.04167 63.9854 2.983C64.22 2.917 64.462 2.884 64.7114 2.884ZM72.7219 7.218C72.7219 7.62133 72.6265 7.966 72.4359 8.252C72.2452 8.53067 71.9592 8.74333 71.5779 8.89C71.1965 9.03667 70.7235 9.11 70.1589 9.11C69.7409 9.11 69.3815 9.08067 69.0809 9.022C68.7802 8.97067 68.4795 8.88267 68.1789 8.758V7.405C68.5015 7.55167 68.8499 7.67267 69.2239 7.768C69.5979 7.86333 69.9279 7.911 70.2139 7.911C70.5365 7.911 70.7639 7.86333 70.8959 7.768C71.0352 7.67267 71.1049 7.548 71.1049 7.394C71.1049 7.29133 71.0755 7.19967 71.0169 7.119C70.9655 7.03833 70.8482 6.94667 70.6649 6.844C70.4815 6.74133 70.1955 6.60933 69.8069 6.448C69.4329 6.28667 69.1249 6.129 68.8829 5.975C68.6409 5.81367 68.4612 5.623 68.3439 5.403C68.2265 5.17567 68.1679 4.89333 68.1679 4.556C68.1679 3.99867 68.3842 3.58067 68.8169 3.302C69.2495 3.02333 69.8252 2.884 70.5439 2.884C70.9179 2.884 71.2735 2.92067 71.6109 2.994C71.9482 3.06733 72.2965 3.18833 72.6559 3.357L72.1609 4.534C71.9629 4.446 71.7722 4.369 71.5889 4.303C71.4055 4.237 71.2259 4.18567 71.0499 4.149C70.8812 4.11233 70.7052 4.094 70.5219 4.094C70.2799 4.094 70.0965 4.127 69.9719 4.193C69.8545 4.259 69.7959 4.358 69.7959 4.49C69.7959 4.58533 69.8252 4.67333 69.8839 4.754C69.9499 4.82733 70.0709 4.908 70.2469 4.996C70.4302 5.084 70.6979 5.20133 71.0499 5.348C71.3945 5.48733 71.6915 5.634 71.9409 5.788C72.1902 5.93467 72.3809 6.12167 72.5129 6.349C72.6522 6.569 72.7219 6.85867 72.7219 7.218ZM75.6376 2.345C75.6376 2.63833 75.6266 2.92067 75.6046 3.192C75.59 3.46333 75.5753 3.654 75.5606 3.764H75.6486C75.7806 3.55867 75.9346 3.39367 76.1106 3.269C76.2866 3.137 76.481 3.04167 76.6936 2.983C76.9136 2.917 77.1446 2.884 77.3866 2.884C77.8193 2.884 78.197 2.961 78.5196 3.115C78.8423 3.269 79.0916 3.50733 79.2676 3.83C79.451 4.15267 79.5426 4.57067 79.5426 5.084V9H77.9036V5.491C77.9036 5.05833 77.823 4.73567 77.6616 4.523C77.5076 4.303 77.2656 4.193 76.9356 4.193C76.6056 4.193 76.3453 4.27 76.1546 4.424C75.9713 4.578 75.8393 4.80167 75.7586 5.095C75.678 5.38833 75.6376 5.74767 75.6376 6.173V9H73.9986V0.639999H75.6376V2.345ZM86.7391 2.994V9H85.4851L85.2651 8.23H85.1771C85.0525 8.43533 84.8911 8.604 84.6931 8.736C84.5025 8.86067 84.2898 8.95233 84.0551 9.011C83.8205 9.077 83.5785 9.11 83.3291 9.11C82.9038 9.11 82.5298 9.033 82.2071 8.879C81.8845 8.725 81.6351 8.48667 81.4591 8.164C81.2831 7.84133 81.1951 7.42333 81.1951 6.91V2.994H82.8341V6.503C82.8341 6.92833 82.9111 7.251 83.0651 7.471C83.2191 7.691 83.4648 7.801 83.8021 7.801C84.1395 7.801 84.3998 7.724 84.5831 7.57C84.7738 7.416 84.9058 7.19233 84.9791 6.899C85.0598 6.60567 85.1001 6.24633 85.1001 5.821V2.994H86.7391Z" fill="#0052CC"/>
</g>
<defs>
<linearGradient id="paint0_linear_2359_1263" x1="3470.59" y1="2354.5" x2="3470.59" y2="14.8743" gradientUnits="userSpaceOnUse">
<stop stop-color="#0052CC"/>
<stop offset="1" stop-color="#2684FF"/>
</linearGradient>
<clipPath id="clip0_2359_1263">
<rect width="111.429" height="37.5" fill="white"/>
</clipPath>
</defs>
</svg>
