<svg width="112" height="38" viewBox="0 0 112 38" fill="none" xmlns="http://www.w3.org/2000/svg">
<mask id="mask0_2366_1296" style="mask-type:luminance" maskUnits="userSpaceOnUse" x="0" y="0" width="112" height="38">
<path d="M111.47 0H0V37.5H111.47V0Z" fill="white"/>
</mask>
<g mask="url(#mask0_2366_1296)">
<path d="M19.7569 14.499H2.7864C1.32159 14.499 0.142578 15.6776 0.142578 17.1419V34.1419C0.142578 35.6061 1.32159 36.7847 2.7864 36.7847H19.7569C21.2218 36.7847 22.4008 35.6061 22.4008 34.1419V17.1419C22.4008 15.6776 21.2218 14.499 19.7569 14.499ZM9.71754 30.5347C9.71754 31.0347 9.32453 31.4276 8.82435 31.4276H5.10869C4.60851 31.4276 4.21551 31.0347 4.21551 30.5347V19.499C4.21551 18.999 4.60851 18.6061 5.10869 18.6061H8.82435C9.32453 18.6061 9.71754 18.999 9.71754 19.499V30.5347ZM18.2921 25.4633C18.2921 25.9633 17.8991 26.3561 17.4347 26.3561H13.6833C13.1831 26.3561 12.7901 25.9633 12.7901 25.4633V19.499C12.7901 18.999 13.1831 18.6061 13.6833 18.6061H17.399C17.8991 18.6061 18.2921 18.999 18.2921 19.499V25.4633Z" fill="url(#paint0_linear_2366_1296)"/>
<path d="M74.1695 36.9276C71.1684 36.9276 69.3105 35.499 69.3105 32.1061V14.499H73.8837V31.4633C73.8837 32.4276 74.5268 32.7847 75.3128 32.7847C75.5271 32.7847 75.7772 32.7847 75.9916 32.749V36.7133C75.3843 36.8561 74.7769 36.9276 74.1695 36.9276Z" fill="#253858"/>
<path d="M83.7447 36.9276C80.7436 36.9276 78.8857 35.499 78.8857 32.1061V14.499H83.4589V31.4633C83.4589 32.4276 84.102 32.7847 84.888 32.7847C85.1023 32.7847 85.3524 32.7847 85.5668 32.749V36.7133C84.9594 36.8561 84.3521 36.9276 83.7447 36.9276Z" fill="#253858"/>
<path d="M87.7471 28.7487C87.7471 23.7844 90.6052 20.3916 95.5356 20.3916C100.466 20.3916 103.252 23.7844 103.252 28.7487C103.252 33.713 100.43 37.1773 95.5356 37.1773C90.6409 37.1773 87.7471 33.6773 87.7471 28.7487ZM92.2129 28.7487C92.2129 31.1773 93.2133 33.0701 95.5356 33.0701C97.8579 33.0701 98.7868 31.1416 98.7868 28.7487C98.7868 26.3559 97.7865 24.463 95.5356 24.463C93.2848 24.463 92.2129 26.3201 92.2129 28.7487Z" fill="#253858"/>
<path d="M55.4492 30.2136C56.7355 30.3564 58.0217 30.4279 59.2721 30.4279C62.7734 30.4279 65.703 29.4993 65.703 26.1064C65.703 22.8207 62.6662 20.3564 59.0221 20.3564C54.1274 20.3564 50.9834 23.9279 50.9834 28.8564C50.9834 33.9993 53.6986 37.0707 59.808 37.0707C61.6301 37.1064 63.4165 36.785 65.1314 36.1421V32.285C63.5594 32.785 61.7731 33.285 59.9867 33.285C57.5572 33.3207 55.878 32.4993 55.4492 30.2136ZM58.9505 23.8921C60.2368 23.8921 61.2729 24.7493 61.2729 25.9636C61.2729 27.4993 59.6294 27.9993 57.7716 27.9993C56.9856 27.9993 56.1638 27.9279 55.3778 27.8207C55.4492 27.0707 55.6636 26.3564 56.021 25.6779C56.5926 24.5707 57.7359 23.8921 58.9505 23.8921Z" fill="#253858"/>
<path d="M50.1682 14.8652L42.6324 36.9992H37.5155L30.0107 14.8652H34.7555L38.911 28.0402C38.9937 28.2675 39.1074 28.6912 39.2521 29.3112C39.4175 29.9105 39.583 30.5512 39.7483 31.2332C39.9137 31.8945 40.0274 32.4525 40.0895 32.9072C40.1515 32.4525 40.2548 31.8945 40.3996 31.2332C40.5649 30.5512 40.7304 29.9105 40.8957 29.3112C41.0611 28.6912 41.1749 28.2675 41.2369 28.0402L45.4234 14.8652H50.1682Z" fill="#253858"/>
<path d="M31.7514 2.45455L33.3335 7.42756H33.3942L34.9794 2.45455H36.5135L34.2571 9H32.4737L30.2141 2.45455H31.7514ZM38.6852 2.45455V9H37.3013V2.45455H38.6852ZM42.1441 9H39.8238V2.45455H42.1633C42.8216 2.45455 43.3884 2.58558 43.8635 2.84766C44.3387 3.1076 44.7041 3.48153 44.9598 3.96946C45.2176 4.45739 45.3465 5.04119 45.3465 5.72088C45.3465 6.4027 45.2176 6.98864 44.9598 7.47869C44.7041 7.96875 44.3366 8.34482 43.8572 8.60689C43.3799 8.86896 42.8089 9 42.1441 9ZM41.2077 7.81428H42.0866C42.4956 7.81428 42.8398 7.74183 43.1189 7.59695C43.4001 7.44993 43.6111 7.22301 43.7517 6.91619C43.8944 6.60724 43.9658 6.20881 43.9658 5.72088C43.9658 5.23722 43.8944 4.84197 43.7517 4.53516C43.6111 4.22834 43.4012 4.00249 43.1221 3.8576C42.843 3.71271 42.4988 3.64027 42.0898 3.64027H41.2077V7.81428ZM46.3716 9V2.45455H47.7555V5.15518H50.5648V2.45455H51.9455V9H50.5648V6.29616H47.7555V9H46.3716ZM54.2147 9H52.7317L54.9913 2.45455H56.7747L59.0311 9H57.5481L55.9086 3.95028H55.8574L54.2147 9ZM54.122 6.4272H57.6248V7.50746H54.122V6.4272ZM65.2937 2.45455V9H64.0984L61.2507 4.88033H61.2028V9H59.8189V2.45455H61.0334L63.8587 6.57102H63.9162V2.45455H65.2937ZM69.9878 4.337C69.9623 4.07919 69.8525 3.87891 69.6586 3.73615C69.4648 3.59339 69.2016 3.52202 68.8692 3.52202C68.6434 3.52202 68.4527 3.55398 68.2971 3.6179C68.1416 3.67969 68.0223 3.76598 67.9392 3.87678C67.8582 3.98757 67.8177 4.11328 67.8177 4.25391C67.8135 4.37109 67.838 4.47337 67.8912 4.56072C67.9466 4.64808 68.0223 4.72372 68.1182 4.78764C68.214 4.84943 68.3248 4.90376 68.4506 4.95064C68.5763 4.99538 68.7105 5.03374 68.8532 5.0657L69.4413 5.20632C69.7268 5.27024 69.9889 5.35547 70.2275 5.462C70.4662 5.56854 70.6729 5.69957 70.8476 5.85511C71.0223 6.01065 71.1576 6.19389 71.2535 6.40483C71.3515 6.61577 71.4015 6.8576 71.4037 7.13033C71.4015 7.53089 71.2993 7.8782 71.0969 8.17223C70.8966 8.46413 70.6068 8.69105 70.2275 8.85298C69.8504 9.01278 69.3955 9.09268 68.8628 9.09268C68.3344 9.09268 67.8742 9.01172 67.4822 8.84979C67.0922 8.68786 66.7876 8.44815 66.5681 8.13068C66.3508 7.81108 66.2368 7.41584 66.2261 6.94496H67.5653C67.5802 7.16442 67.643 7.34766 67.7538 7.49467C67.8667 7.63956 68.017 7.74929 68.2045 7.82386C68.3941 7.89631 68.6082 7.93253 68.8469 7.93253C69.0812 7.93253 69.2847 7.89844 69.4573 7.83026C69.632 7.76207 69.7673 7.66726 69.8632 7.54581C69.9591 7.42436 70.007 7.2848 70.007 7.12713C70.007 6.98011 69.9633 6.85653 69.876 6.75639C69.7907 6.65625 69.665 6.57102 69.4988 6.50071C69.3348 6.4304 69.1334 6.36648 68.8948 6.30895L68.1821 6.12997C67.6302 5.99574 67.1945 5.78587 66.8749 5.50036C66.5553 5.21484 66.3966 4.83026 66.3987 4.34659C66.3966 3.95028 66.502 3.60405 66.7151 3.30788C66.9303 3.01172 67.2254 2.78054 67.6004 2.61435C67.9754 2.44815 68.4015 2.36506 68.8788 2.36506C69.3646 2.36506 69.7886 2.44815 70.1508 2.61435C70.5152 2.78054 70.7986 3.01172 71.001 3.30788C71.2034 3.60405 71.3078 3.94709 71.3142 4.337H69.9878ZM72.3345 9V2.45455H73.7184V5.15518H76.5277V2.45455H77.9084V9H76.5277V6.29616H73.7184V9H72.3345ZM83.0923 2.45455H84.4762V6.70526C84.4762 7.18253 84.3622 7.60014 84.1342 7.9581C83.9084 8.31605 83.592 8.59517 83.185 8.79545C82.7781 8.99361 82.304 9.09268 81.7628 9.09268C81.2195 9.09268 80.7443 8.99361 80.3374 8.79545C79.9304 8.59517 79.614 8.31605 79.3881 7.9581C79.1623 7.60014 79.0494 7.18253 79.0494 6.70526V2.45455H80.4332V6.587C80.4332 6.83629 80.4876 7.05788 80.5962 7.25178C80.707 7.44567 80.8626 7.59801 81.0629 7.70881C81.2631 7.8196 81.4964 7.875 81.7628 7.875C82.0313 7.875 82.2646 7.8196 82.4627 7.70881C82.663 7.59801 82.8175 7.44567 82.9261 7.25178C83.0369 7.05788 83.0923 6.83629 83.0923 6.587V2.45455Z" fill="#0052CC"/>
</g>
<defs>
<linearGradient id="paint0_linear_2366_1296" x1="3471.87" y1="2354.5" x2="3471.87" y2="14.8733" gradientUnits="userSpaceOnUse">
<stop stop-color="#0052CC"/>
<stop offset="1" stop-color="#2684FF"/>
</linearGradient>
</defs>
</svg>
