<svg width="94" height="32" viewBox="0 0 94 32" fill="none" xmlns="http://www.w3.org/2000/svg">
<g clip-path="url(#clip0_2369_1268)">
<path fill-rule="evenodd" clip-rule="evenodd" d="M60.4054 23.7902C57.9054 23.7902 56.3306 22.5776 56.3306 19.7573V5H60.1719V19.2304C60.1719 20.0477 60.7138 20.3381 61.3695 20.3381C61.5585 20.3421 61.7475 20.3331 61.9353 20.3112V23.6315C61.4352 23.7552 60.9203 23.8086 60.4054 23.7902ZM64.3465 19.7573C64.3465 22.5776 65.9183 23.7902 68.4183 23.7902C68.9351 23.809 69.4521 23.7556 69.9542 23.6315V20.3112C69.7654 20.333 69.5753 20.342 69.3853 20.3381C68.7296 20.3381 68.1877 20.0477 68.1877 19.2304V5H64.3465V19.7573ZM71.8008 16.9402C71.8008 12.7786 74.196 9.93129 78.3217 9.93129C82.4474 9.93129 84.7917 12.7845 84.7917 16.9402C84.7917 21.0958 82.4204 24 78.3217 24C74.2229 24 71.8008 21.0749 71.8008 16.9402ZM75.5373 16.9402C75.5373 18.9701 76.3876 20.5749 78.3217 20.5749C80.2558 20.5749 81.0552 18.9701 81.0552 16.9402C81.0552 14.9103 80.2288 13.3474 78.3217 13.3474C76.4145 13.3474 75.5523 14.9103 75.5523 16.9402H75.5373ZM47.9341 18.3621C46.8587 18.3538 45.7845 18.2909 44.7156 18.1734C45.0688 20.0986 46.482 20.7692 48.5359 20.7692C50.0568 20.7692 51.5418 20.3501 52.8562 19.9309V23.1734C51.4326 23.7133 49.9206 23.9824 48.3981 23.9668C43.2695 23.9668 41 21.4009 41 17.0806C41 12.934 43.6287 9.94 47.7365 9.94C50.7873 9.94 53.3232 12.0058 53.3232 14.7513C53.3232 17.5776 50.8532 18.3621 47.9341 18.3621ZM49.6077 14.6166C49.6077 13.6136 48.7395 12.8801 47.6586 12.8801L47.6556 12.8711C47.1527 12.8789 46.661 13.0206 46.231 13.2816C45.8011 13.5426 45.4485 13.9135 45.2096 14.3561C44.911 14.9118 44.7315 15.5236 44.6826 16.1525C45.3424 16.2551 46.0089 16.3081 46.6766 16.3112C48.2425 16.3112 49.6077 15.91 49.6077 14.6166Z" fill="black"/>
<path fill-rule="evenodd" clip-rule="evenodd" d="M16.4579 5H2.21854C1.63014 5 1.06585 5.23374 0.649794 5.64979C0.233738 6.06585 0 6.63014 0 7.21854V21.4669C0 22.0553 0.233738 22.6196 0.649794 23.0356C1.06585 23.4517 1.63014 23.6854 2.21854 23.6854H16.4579C17.0463 23.6854 17.6106 23.4517 18.0266 23.0356C18.4427 22.6196 18.6764 22.0553 18.6764 21.4669V7.22452C18.6772 6.93268 18.6204 6.64354 18.5093 6.37369C18.3981 6.10383 18.2348 5.85855 18.0287 5.65191C17.8227 5.44527 17.5778 5.28131 17.3083 5.16945C17.0387 5.05758 16.7497 5 16.4579 5ZM8.04481 18.4729C8.04481 18.6685 7.96731 18.8561 7.82927 18.9947C7.69123 19.1333 7.50391 19.2116 7.30829 19.2124H4.18558C3.98969 19.2116 3.80205 19.1334 3.66353 18.9949C3.52502 18.8564 3.44685 18.6688 3.44607 18.4729V9.19157C3.44685 8.99568 3.52502 8.80804 3.66353 8.66952C3.80205 8.53101 3.98969 8.45284 4.18558 8.45205H7.30829C7.50391 8.45285 7.69123 8.53111 7.82927 8.66971C7.96731 8.80831 8.04481 8.99595 8.04481 9.19157V18.4729ZM15.2304 14.2185C15.2296 14.4143 15.1514 14.602 15.0129 14.7405C14.8744 14.879 14.6867 14.9572 14.4908 14.958H11.3681C11.1725 14.9572 10.9852 14.8789 10.8471 14.7403C10.7091 14.6017 10.6316 14.4141 10.6316 14.2185V9.19157C10.6316 8.99595 10.7091 8.80831 10.8471 8.66971C10.9852 8.53111 11.1725 8.45285 11.3681 8.45205H14.4908C14.6867 8.45284 14.8744 8.53101 15.0129 8.66952C15.1514 8.80804 15.2296 8.99568 15.2304 9.19157V14.2185Z" fill="url(#paint0_linear_2369_1268)"/>
<path d="M24.364 5.384H28.16L32.008 16.616L32.684 18.982H32.892L33.62 16.616L37.624 5.384H41.42L34.634 24H30.942L24.364 5.384Z" fill="black"/>
</g>
<defs>
<linearGradient id="paint0_linear_2369_1268" x1="9.33821" y1="23.6824" x2="9.33821" y2="5.00599" gradientUnits="userSpaceOnUse">
<stop stop-color="#0052CC"/>
<stop offset="1" stop-color="#2684FF"/>
</linearGradient>
<clipPath id="clip0_2369_1268">
<rect width="94" height="32" fill="white"/>
</clipPath>
</defs>
</svg>
