<svg width="190" height="32" viewBox="0 0 190 32" fill="none" xmlns="http://www.w3.org/2000/svg">
<path d="M11.6677 19.5207C11.5522 19.6754 11.3662 19.757 11.1772 19.736C10.9882 19.715 10.8236 19.5943 10.7433 19.4179L6.0591 9.82976C5.97233 9.65209 5.98161 9.4411 6.08361 9.27213C6.18561 9.10316 6.36579 9.0003 6.55981 9.00028H13.0823C13.2957 8.9952 13.492 9.11942 13.583 9.31714C14.99 12.2936 14.1373 16.8194 11.6677 19.5207Z" fill="url(#paint0_linear_2371_1272)"/>
<path d="M15.3575 27.701C13.0692 24.0656 12.8051 19.4544 14.6625 15.5658L17.693 9.30797C17.7844 9.11924 17.9712 9.00002 18.1755 9H24.4603C24.6473 9.00002 24.8209 9.09999 24.9192 9.26422C25.0175 9.42845 25.0264 9.63352 24.9428 9.8062C24.9428 9.8062 16.4877 27.2678 16.2752 27.7045C16.1895 27.886 16.0108 28.0007 15.8153 28C15.6198 27.9993 15.442 27.8831 15.3575 27.701Z" fill="#7A869A"/>
<path d="M29.364 9.384H33.16L37.008 20.616L37.684 22.982H37.892L38.62 20.616L42.624 9.384H46.42L39.634 28H35.942L29.364 9.384ZM48.9054 9.384H52.4154V28H48.9054V9.384ZM56.6496 9.384H62.9416C64.8829 9.384 66.5729 9.774 68.0116 10.554C69.4502 11.334 70.5596 12.426 71.3396 13.83C72.1196 15.234 72.5096 16.8547 72.5096 18.692C72.5096 20.5293 72.1196 22.15 71.3396 23.554C70.5596 24.958 69.4502 26.05 68.0116 26.83C66.5729 27.61 64.8829 28 62.9416 28H56.6496V9.384ZM62.7856 24.672C64.7962 24.672 66.3302 24.1433 67.3876 23.086C68.4449 22.0113 68.9736 20.5467 68.9736 18.692C68.9736 16.8373 68.4449 15.3813 67.3876 14.324C66.3302 13.2493 64.7962 12.712 62.7856 12.712H60.1596V24.672H62.7856ZM75.8449 9.384H79.3549V16.82H87.1809V9.384H90.6909V28H87.1809V20.148H79.3549V28H75.8449V9.384ZM100.19 9.384H104.22L111.214 28H107.34L105.78 23.554H98.656L97.096 28H93.222L100.19 9.384ZM104.636 20.33L102.998 15.65L102.322 13.414H102.114L101.438 15.65L99.774 20.33H104.636ZM113.728 9.384H117.81L125.298 21.864H125.506L125.298 18.276V9.384H128.782V28H125.09L117.186 14.818H116.978L117.186 18.406V28H113.728V9.384ZM138.641 28.416C137.011 28.416 135.573 27.9567 134.325 27.038C133.077 26.1193 132.201 24.8193 131.699 23.138L135.001 21.838C135.261 22.826 135.703 23.6147 136.327 24.204C136.951 24.7933 137.731 25.088 138.667 25.088C139.447 25.088 140.114 24.8973 140.669 24.516C141.223 24.1173 141.501 23.5713 141.501 22.878C141.501 22.1847 141.232 21.6213 140.695 21.188C140.175 20.7373 139.239 20.2607 137.887 19.758L136.743 19.342C135.547 18.926 134.524 18.2933 133.675 17.444C132.825 16.5773 132.401 15.494 132.401 14.194C132.401 13.2233 132.652 12.3393 133.155 11.542C133.657 10.7447 134.368 10.1207 135.287 9.67C136.205 9.202 137.245 8.968 138.407 8.968C140.088 8.968 141.414 9.36667 142.385 10.164C143.355 10.944 144.023 11.8627 144.387 12.92L141.293 14.22C141.102 13.648 140.764 13.1713 140.279 12.79C139.811 12.3913 139.204 12.192 138.459 12.192C137.696 12.192 137.063 12.374 136.561 12.738C136.075 13.0847 135.833 13.544 135.833 14.116C135.833 14.6707 136.067 15.1473 136.535 15.546C137.003 15.9273 137.774 16.3 138.849 16.664L140.019 17.054C141.631 17.6087 142.861 18.3453 143.711 19.264C144.577 20.1653 145.011 21.3527 145.011 22.826C145.011 24.0393 144.699 25.0707 144.075 25.92C143.451 26.752 142.645 27.376 141.657 27.792C140.686 28.208 139.681 28.416 138.641 28.416ZM148.335 9.384H151.845V16.82H159.671V9.384H163.181V28H159.671V20.148H151.845V28H148.335V9.384ZM174.344 28.416C172.888 28.416 171.614 28.104 170.522 27.48C169.448 26.856 168.607 25.9547 168 24.776C167.411 23.5973 167.116 22.202 167.116 20.59V9.384H170.6V20.798C170.6 22.0807 170.921 23.1207 171.562 23.918C172.221 24.698 173.148 25.088 174.344 25.088C175.54 25.088 176.459 24.698 177.1 23.918C177.759 23.1207 178.088 22.0807 178.088 20.798V9.384H181.572V20.59C181.572 22.1327 181.278 23.4933 180.688 24.672C180.099 25.8507 179.258 26.7693 178.166 27.428C177.074 28.0867 175.8 28.416 174.344 28.416Z" fill="#505E78"/>
<defs>
<linearGradient id="paint0_linear_2371_1272" x1="829.482" y1="-150.087" x2="156.409" y2="-856.321" gradientUnits="userSpaceOnUse">
<stop stop-color="#344563"/>
<stop offset="1" stop-color="#7A869A"/>
</linearGradient>
</defs>
</svg>
