<svg xmlns="http://www.w3.org/2000/svg" width="300" height="324" fill="none"><g clip-path="url(#a)"><g clip-path="url(#b)"><rect x="92.677" y="149" width="100.215" height="26" rx="4" fill="#ED50B4"/><g clip-path="url(#c)"><g clip-path="url(#d)"><g clip-path="url(#e)" fill="#fff" fill-opacity=".85"><path d="M111.508 154.139a2 2 0 0 1 2-2h2.276a2 2 0 0 1 2 2v2.277a2 2 0 0 1-2 2h-2.276a2 2 0 0 1-2-2v-2.277ZM95.815 166.692a2 2 0 0 1 2-2h2.277a2 2 0 0 1 2 2v2.277a2 2 0 0 1-2 2h-2.277a2 2 0 0 1-2-2v-2.277ZM95.815 154.139a2 2 0 0 1 2-2h8.554a2 2 0 0 1 2 2v2.277a2 2 0 0 1-2 2h-8.554a2 2 0 0 1-2-2v-2.277ZM105.231 166.692a2 2 0 0 1 2-2h8.554a2 2 0 0 1 2 2v2.277a2 2 0 0 1-2 2h-8.554a2 2 0 0 1-2-2v-2.277Z"/></g></g></g><path d="M131.368 164.405c.12 2.4 2.133 3.926 5.177 3.926 3.218 0 5.213-1.6 5.213-4.174 0-2.014-1.131-3.136-3.825-3.752l-1.526-.349c-1.646-.386-2.317-.911-2.317-1.821 0-1.149 1.011-1.903 2.538-1.903 1.452 0 2.482.745 2.648 1.931h2.271c-.111-2.271-2.124-3.862-4.91-3.862-2.97 0-4.938 1.6-4.938 3.991 0 1.967 1.131 3.153 3.54 3.705l1.72.395c1.701.396 2.427.984 2.427 1.95 0 1.131-1.131 1.949-2.694 1.949-1.683 0-2.86-.772-3.007-1.986h-2.317Zm15.493 3.761c1.315 0 2.418-.571 2.979-1.545h.157V168h2.197v-6.868c0-2.124-1.453-3.375-4.036-3.375-2.391 0-4.055 1.122-4.239 2.878h2.152c.211-.69.928-1.067 1.976-1.067 1.232 0 1.895.561 1.895 1.564v.864l-2.593.156c-2.446.138-3.816 1.195-3.816 2.998 0 1.839 1.388 3.016 3.328 3.016Zm.671-1.757c-1.011 0-1.737-.505-1.737-1.37 0-.836.597-1.305 1.875-1.388l2.272-.156v.818c0 1.195-1.03 2.096-2.41 2.096Zm7.503 1.591h2.281v-13.939h-2.281V168Zm11.724-2.749c-.331.754-1.113 1.177-2.244 1.177-1.499 0-2.464-1.067-2.519-2.768v-.119h7.025v-.727c0-3.154-1.72-5.057-4.589-5.057-2.914 0-4.726 2.032-4.726 5.259 0 3.219 1.784 5.186 4.745 5.186 2.372 0 4.055-1.14 4.468-2.951h-2.16Zm-2.336-5.719c1.37 0 2.271.965 2.317 2.491h-4.735c.101-1.507 1.057-2.491 2.418-2.491Zm6.657 1.287c0 1.508.91 2.391 2.841 2.832l1.784.414c.956.22 1.388.588 1.388 1.158 0 .763-.799 1.287-1.949 1.287-1.14 0-1.848-.459-2.069-1.204h-2.252c.174 1.811 1.756 2.896 4.266 2.896s4.285-1.278 4.285-3.199c0-1.481-.892-2.299-2.814-2.74l-1.774-.396c-1.012-.239-1.49-.598-1.49-1.168 0-.744.782-1.25 1.821-1.25 1.066 0 1.737.46 1.903 1.168h2.142c-.165-1.812-1.664-2.86-4.055-2.86-2.372 0-4.027 1.26-4.027 3.062Z" fill="#fff"/></g><g clip-path="url(#f)"><rect x="142.677" y="233" width="114.215" height="26" rx="4" fill="#FFC400"/><g clip-path="url(#g)"><g clip-path="url(#h)"><g clip-path="url(#i)" fill="#fff" fill-opacity=".85"><path d="M164.646 248.692h3.138v6.277h-3.138v-6.277ZM142.677 248.692h3.138v6.277h-3.138v-6.277ZM145.815 248.692h6.277v3.277a3 3 0 0 1-3 3h-3.277v-6.277ZM152.092 236.139h6.277v6.277h-6.277v-6.277ZM158.369 236.139h3.277a3 3 0 0 1 3 3v3.277h-6.277v-6.277ZM145.815 242.415h6.277v6.277h-6.277v-6.277Z"/><path d="M145.815 239.139a3 3 0 0 1 3-3h3.277v6.277h-6.277v-3.277ZM158.369 242.415h6.277v6.277h-6.277v-6.277ZM158.369 248.692h6.277v6.277h-3.277a3 3 0 0 1-3-3v-3.277Z"/></g></g></g><path d="M181.975 238.732V252h4.974c3.972 0 6.244-2.437 6.244-6.694 0-4.165-2.299-6.574-6.244-6.574h-4.974Zm2.372 1.995h2.29c2.602 0 4.137 1.692 4.137 4.616 0 2.988-1.498 4.662-4.137 4.662h-2.29v-9.278Zm17.884 8.524c-.331.754-1.113 1.177-2.244 1.177-1.498 0-2.464-1.067-2.519-2.768v-.119h7.025v-.727c0-3.154-1.72-5.057-4.588-5.057-2.915 0-4.726 2.032-4.726 5.259 0 3.219 1.783 5.186 4.744 5.186 2.372 0 4.055-1.14 4.469-2.951h-2.161Zm-2.335-5.719c1.37 0 2.271.965 2.317 2.491h-4.736c.101-1.507 1.058-2.491 2.419-2.491Zm6.657 1.287c0 1.508.91 2.391 2.841 2.832l1.783.414c.957.22 1.389.588 1.389 1.158 0 .763-.8 1.287-1.949 1.287-1.141 0-1.849-.459-2.069-1.204h-2.253c.175 1.811 1.756 2.896 4.266 2.896 2.511 0 4.285-1.278 4.285-3.199 0-1.481-.892-2.299-2.813-2.74l-1.775-.396c-1.011-.239-1.49-.598-1.49-1.168 0-.744.782-1.25 1.821-1.25 1.067 0 1.738.46 1.903 1.168h2.143c-.166-1.812-1.665-2.86-4.055-2.86-2.372 0-4.027 1.26-4.027 3.062Zm11.76-4.551c.754 0 1.37-.598 1.37-1.352 0-.745-.616-1.352-1.37-1.352-.745 0-1.361.607-1.361 1.352 0 .754.616 1.352 1.361 1.352ZM217.182 252h2.271v-10.05h-2.271V252Zm9.424 3.825c2.933 0 4.791-1.462 4.791-3.77V241.95h-2.198v1.609h-.156c-.552-1.094-1.747-1.774-3.117-1.774-2.566 0-4.156 2.004-4.156 5.084 0 3.016 1.581 4.984 4.119 4.984 1.398 0 2.492-.589 3.071-1.674h.156v1.913c0 1.278-.91 2.032-2.473 2.032-1.251 0-2.06-.451-2.207-1.159h-2.289c.184 1.729 1.875 2.86 4.459 2.86Zm0-5.783c-1.591 0-2.492-1.233-2.492-3.182 0-1.94.901-3.172 2.492-3.172 1.582 0 2.547 1.232 2.547 3.181 0 1.94-.956 3.173-2.547 3.173Zm7.595 1.958h2.28v-5.857c0-1.508.855-2.455 2.216-2.455 1.389 0 2.032.782 2.032 2.345V252h2.281v-6.501c0-2.39-1.223-3.742-3.467-3.742-1.499 0-2.51.681-2.988 1.802h-.156v-1.609h-2.198V252Z" fill="#fff"/></g><g clip-path="url(#j)"><rect x="90.177" y="65" width="153.215" height="26" rx="4" fill="#00C7E6"/><g clip-path="url(#k)"><g clip-path="url(#l)"><path d="M111.025 74.64 99.816 85.847a3.804 3.804 0 0 1-5.38-5.38l11.209-11.209a3.804 3.804 0 1 1 5.38 5.38Z" fill="#fff" fill-opacity=".85"/></g></g><path d="M135.194 70.401c-3.852 0-6.28 2.676-6.28 6.96 0 4.276 2.391 6.97 6.28 6.97 3.871 0 6.271-2.694 6.271-6.97 0-4.284-2.409-6.96-6.271-6.96Zm0 2.05c2.354 0 3.853 1.904 3.853 4.91 0 2.989-1.49 4.92-3.853 4.92-2.39 0-3.852-1.931-3.852-4.92 0-3.006 1.498-4.91 3.852-4.91Zm14.234 1.334c-1.38 0-2.547.69-3.127 1.83h-.156V73.95h-2.197v13.388h2.28v-4.864h.156c.515 1.066 1.628 1.691 3.071 1.691 2.538 0 4.119-1.995 4.119-5.185 0-3.219-1.6-5.195-4.146-5.195Zm-.718 8.486c-1.554 0-2.519-1.26-2.528-3.291.009-2.032.984-3.292 2.538-3.292 1.563 0 2.51 1.232 2.51 3.292 0 2.06-.938 3.291-2.52 3.291Zm13.71-1.02c-.331.754-1.113 1.177-2.244 1.177-1.499 0-2.464-1.067-2.519-2.768v-.12h7.025v-.726c0-3.154-1.72-5.057-4.589-5.057-2.914 0-4.726 2.032-4.726 5.26 0 3.218 1.784 5.185 4.745 5.185 2.372 0 4.055-1.14 4.468-2.951h-2.16Zm-2.336-5.72c1.37 0 2.271.966 2.317 2.492h-4.735c.101-1.507 1.057-2.491 2.418-2.491ZM166.971 84h2.28v-5.839c0-1.416 1.03-2.335 2.511-2.335.386 0 .993.064 1.167.129v-2.078c-.211-.055-.616-.092-.947-.092-1.296 0-2.381.735-2.657 1.728h-.156V73.95h-2.198V84Zm10.473.165c1.315 0 2.418-.57 2.979-1.544h.156V84h2.198v-6.868c0-2.124-1.453-3.375-4.037-3.375-2.39 0-4.055 1.122-4.238 2.878h2.151c.212-.69.929-1.067 1.977-1.067 1.232 0 1.894.561 1.894 1.564v.864l-2.593.156c-2.446.138-3.816 1.195-3.816 2.998 0 1.839 1.389 3.015 3.329 3.015Zm.671-1.756c-1.011 0-1.738-.505-1.738-1.37 0-.836.598-1.305 1.876-1.388l2.271-.156v.818c0 1.195-1.03 2.096-2.409 2.096Zm8.137-10.923v2.528h-1.59v1.775h1.59v5.544c0 1.94.92 2.713 3.228 2.713.441 0 .864-.037 1.195-.101v-1.747c-.276.027-.451.046-.772.046-.957 0-1.38-.45-1.38-1.453v-5.002h2.152v-1.775h-2.152v-2.528h-2.271Zm7.862.781c.754 0 1.37-.597 1.37-1.351 0-.745-.616-1.352-1.37-1.352-.745 0-1.361.607-1.361 1.352 0 .754.616 1.352 1.361 1.352ZM192.983 84h2.271V73.95h-2.271V84Zm9.443.202c3.007 0 4.836-1.967 4.836-5.231 0-3.246-1.839-5.214-4.836-5.214-2.988 0-4.837 1.977-4.837 5.213 0 3.265 1.821 5.232 4.837 5.232Zm0-1.866c-1.591 0-2.501-1.232-2.501-3.356 0-2.124.91-3.356 2.501-3.356 1.581 0 2.492 1.232 2.492 3.356 0 2.124-.901 3.356-2.492 3.356ZM209.561 84h2.28v-5.857c0-1.508.855-2.455 2.216-2.455 1.389 0 2.032.781 2.032 2.345V84h2.281v-6.5c0-2.391-1.223-3.743-3.467-3.743-1.499 0-2.51.68-2.988 1.802h-.156V73.95h-2.198V84Zm11.282-7.181c0 1.508.91 2.39 2.841 2.832l1.784.414c.956.22 1.388.588 1.388 1.158 0 .763-.8 1.287-1.949 1.287-1.14 0-1.848-.46-2.069-1.204h-2.253c.175 1.811 1.757 2.896 4.267 2.896 2.51 0 4.285-1.278 4.285-3.2 0-1.48-.892-2.298-2.814-2.74l-1.775-.395c-1.011-.239-1.489-.598-1.489-1.168 0-.744.781-1.25 1.82-1.25 1.067 0 1.738.46 1.904 1.168h2.142c-.165-1.812-1.664-2.86-4.055-2.86-2.372 0-4.027 1.26-4.027 3.062Z" fill="#fff"/></g><path transform="rotate(-180 275 217)" fill="url(#m)" d="M275 217h304v26H275z"/><path transform="rotate(-180 215 133)" fill="url(#n)" d="M215 133h223v26H215z"/><path transform="rotate(-180 175 49)" fill="url(#o)" d="M175 49h223v26H175z"/><path transform="rotate(-180 183 301)" fill="url(#p)" d="M183 301h223v26H183z"/><path transform="rotate(-180 153 259)" fill="url(#q)" d="M153 259h223v26H153z"/><path transform="rotate(-180 123 175)" fill="url(#r)" d="M123 175h223v26H123z"/><path transform="rotate(-180 123 92)" fill="url(#s)" d="M123 92h203v26H123z"/></g><defs><clipPath id="a"><path fill="#fff" d="M0 0h300v324H0z"/></clipPath><clipPath id="b"><rect x="92.677" y="149" width="100.215" height="26" rx="4" fill="#fff"/></clipPath><clipPath id="c"><path fill="#fff" d="M92.677 149h25.108v25.108H92.677z"/></clipPath><clipPath id="d"><path fill="#fff" d="M92.677 149h25.108v25.108H92.677z"/></clipPath><clipPath id="e"><path fill="#fff" d="M92.677 149h25.108v25.108H92.677z"/></clipPath><clipPath id="f"><rect x="142.677" y="233" width="114.215" height="26" rx="4" fill="#fff"/></clipPath><clipPath id="g"><path fill="#fff" d="M142.677 233h25.108v25.108h-25.108z"/></clipPath><clipPath id="h"><path fill="#fff" d="M142.677 233h25.108v25.108h-25.108z"/></clipPath><clipPath id="i"><path fill="#fff" d="M142.677 233h25.108v25.108h-25.108z"/></clipPath><clipPath id="j"><rect x="90.177" y="65" width="153.215" height="26" rx="4" fill="#fff"/></clipPath><clipPath id="k"><path fill="#fff" d="M90.177 65h25.108v25.108H90.177z"/></clipPath><clipPath id="l"><path fill="#fff" d="M90.177 65h25.108v25.108H90.177z"/></clipPath><linearGradient id="m" x1="591.845" y1="243" x2="298.549" y2="243" gradientUnits="userSpaceOnUse"><stop offset=".182" stop-color="#fff" stop-opacity="0"/><stop offset=".417" stop-color="#fff" stop-opacity=".2"/><stop offset=".813" stop-color="#fff" stop-opacity="0"/></linearGradient><linearGradient id="n" x1="447.423" y1="159" x2="232.275" y2="159" gradientUnits="userSpaceOnUse"><stop offset=".063" stop-color="#fff" stop-opacity="0"/><stop offset=".385" stop-color="#fff" stop-opacity=".2"/><stop offset=".875" stop-color="#fff" stop-opacity="0"/></linearGradient><linearGradient id="o" x1="407.423" y1="75" x2="192.275" y2="75" gradientUnits="userSpaceOnUse"><stop offset=".063" stop-color="#fff" stop-opacity="0"/><stop offset=".517" stop-color="#fff" stop-opacity=".2"/><stop offset=".943" stop-color="#fff" stop-opacity="0"/></linearGradient><linearGradient id="p" x1="415.423" y1="327" x2="200.275" y2="327" gradientUnits="userSpaceOnUse"><stop offset=".063" stop-color="#fff" stop-opacity="0"/><stop offset=".517" stop-color="#fff" stop-opacity=".2"/><stop offset=".943" stop-color="#fff" stop-opacity="0"/></linearGradient><linearGradient id="q" x1="385.423" y1="285" x2="170.275" y2="285" gradientUnits="userSpaceOnUse"><stop offset=".063" stop-color="#fff" stop-opacity="0"/><stop offset=".517" stop-color="#fff" stop-opacity=".2"/><stop offset=".943" stop-color="#fff" stop-opacity="0"/></linearGradient><linearGradient id="r" x1="355.423" y1="201" x2="140.275" y2="201" gradientUnits="userSpaceOnUse"><stop offset=".063" stop-color="#fff" stop-opacity="0"/><stop offset=".517" stop-color="#fff" stop-opacity=".2"/><stop offset=".943" stop-color="#fff" stop-opacity="0"/></linearGradient><linearGradient id="s" x1="334.577" y1="118" x2="138.725" y2="118" gradientUnits="userSpaceOnUse"><stop offset=".063" stop-color="#fff" stop-opacity="0"/><stop offset=".432" stop-color="#fff" stop-opacity=".2"/><stop offset=".88" stop-color="#fff" stop-opacity="0"/></linearGradient></defs></svg>