<svg xmlns="http://www.w3.org/2000/svg" width="300" height="324" fill="none"><g clip-path="url(#a)"><g clip-path="url(#b)"><rect x="121.108" y="149" width="124.215" height="26" rx="4" fill="#8777D9"/><g clip-path="url(#c)"><g clip-path="url(#d)"><g clip-path="url(#e)" fill="#fff" fill-opacity=".85"><path d="M136.8 170.969h6.277v3.138H136.8v-3.138ZM136.8 149h6.277v3.138H136.8V149ZM124.246 158.415h6.277v6.277h-6.277v-6.277Z"/><path d="M124.246 155.139a3 3 0 0 1 3-3h3.277v6.277h-6.277v-3.277ZM143.077 155.415a3 3 0 0 1-3 3H136.8v-6.277h6.277v3.277ZM130.523 152.139h6.277v6.277h-6.277v-6.277ZM143.077 164.692h3.138v6.277h-3.138v-6.277ZM121.108 164.692h3.138v6.277h-3.138v-6.277ZM136.8 167.692a3 3 0 0 1 3-3h3.277v6.277H136.8v-3.277Z"/><path d="M130.523 167.969a3 3 0 0 1-3 3h-3.277v-6.277h6.277v3.277Z"/></g></g></g><path d="M160.406 154.732V168h2.372v-4.386h2.878c2.685 0 4.561-1.793 4.561-4.413 0-2.667-1.812-4.469-4.46-4.469h-5.351Zm2.372 1.94h2.354c1.71 0 2.676.883 2.676 2.529 0 1.6-.993 2.501-2.685 2.501h-2.345v-5.03Zm9.82 11.328h2.28v-5.839c0-1.416 1.03-2.335 2.511-2.335.386 0 .993.064 1.167.129v-2.078c-.211-.056-.616-.092-.947-.092-1.296 0-2.381.735-2.657 1.728h-.156v-1.563h-2.198V168Zm11.916.202c3.007 0 4.837-1.967 4.837-5.232 0-3.245-1.839-5.213-4.837-5.213-2.988 0-4.836 1.977-4.836 5.213 0 3.265 1.821 5.232 4.836 5.232Zm0-1.866c-1.59 0-2.5-1.232-2.5-3.356 0-2.124.91-3.356 2.5-3.356 1.582 0 2.492 1.232 2.492 3.356 0 2.124-.901 3.356-2.492 3.356Zm10.777 1.83c1.397 0 2.556-.653 3.126-1.757h.156V168h2.207v-13.939h-2.28v5.489h-.157c-.533-1.103-1.673-1.765-3.052-1.765-2.538 0-4.138 2.004-4.138 5.185 0 3.191 1.591 5.196 4.138 5.196Zm.708-8.478c1.563 0 2.528 1.26 2.528 3.292 0 2.041-.956 3.291-2.528 3.291-1.563 0-2.51-1.232-2.51-3.291 0-2.051.956-3.292 2.51-3.292Zm16.412-1.738h-2.28v5.857c0 1.517-.809 2.437-2.29 2.437-1.36 0-1.995-.754-1.995-2.317v-5.977h-2.28v6.528c0 2.354 1.287 3.724 3.485 3.724 1.535 0 2.519-.653 3.006-1.802h.157v1.6h2.197v-10.05Zm11.484 3.356c-.239-2.078-1.802-3.549-4.385-3.549-3.026 0-4.8 1.94-4.8 5.195 0 3.292 1.784 5.25 4.809 5.25 2.547 0 4.128-1.416 4.376-3.494h-2.17c-.239 1.058-1.029 1.619-2.215 1.619-1.554 0-2.492-1.242-2.492-3.375 0-2.096.928-3.328 2.492-3.328 1.25 0 2.004.708 2.215 1.682h2.17Zm3.035-5.82v2.529h-1.591v1.774h1.591v5.545c0 1.94.919 2.712 3.227 2.712a6.55 6.55 0 0 0 1.195-.101v-1.747c-.276.027-.45.046-.772.046-.956 0-1.379-.451-1.379-1.453v-5.002h2.151v-1.774h-2.151v-2.529h-2.271Z" fill="#fff"/></g><g clip-path="url(#f)"><rect x="52.5" y="65" width="144.215" height="26" rx="4" fill="#57D9A3"/><g clip-path="url(#g)"><g clip-path="url(#h)" fill="#fff" fill-opacity=".85"><path d="M55.638 70.139a2 2 0 0 1 2-2H70.47a4 4 0 0 1 4 4v2.277H57.64a2 2 0 0 1-2-2v-2.277ZM55.638 82.692a2 2 0 0 1 2-2H74.47v2.277a4 4 0 0 1-4 4H57.64a2 2 0 0 1-2-2v-2.277Z"/><path d="M68.192 74.415h6.277v6.277h-6.277z"/></g></g><path d="M105.498 84V70.732h-2.776l-3.99 9.848h-.166l-3.99-9.848h-2.778V84h2.207v-9.406h.129l3.668 8.992h1.692l3.669-8.992h.129V84h2.206Zm5.802.165c1.315 0 2.418-.57 2.979-1.544h.157V84h2.197v-6.868c0-2.124-1.453-3.375-4.036-3.375-2.391 0-4.055 1.122-4.239 2.878h2.152c.211-.69.928-1.067 1.976-1.067 1.232 0 1.894.561 1.894 1.564v.864l-2.592.156c-2.446.138-3.816 1.195-3.816 2.998 0 1.839 1.388 3.015 3.328 3.015Zm.671-1.756c-1.011 0-1.737-.505-1.737-1.37 0-.836.597-1.305 1.875-1.388l2.271-.156v.818c0 1.195-1.029 2.096-2.409 2.096ZM119.382 84h2.281v-5.839c0-1.416 1.03-2.335 2.51-2.335.386 0 .993.064 1.168.129v-2.078c-.212-.055-.616-.092-.947-.092-1.297 0-2.382.735-2.658 1.728h-.156V73.95h-2.198V84Zm10.363-5.93h-.156v-8.01h-2.281V84h2.281v-3.53l.809-.81 3.227 4.34h2.758l-4.284-5.737 4.009-4.313h-2.648l-3.715 4.12Zm14.399 3.18c-.331.755-1.113 1.178-2.244 1.178-1.498 0-2.464-1.067-2.519-2.768v-.12h7.025v-.726c0-3.154-1.72-5.057-4.588-5.057-2.915 0-4.727 2.032-4.727 5.26 0 3.218 1.784 5.185 4.745 5.185 2.372 0 4.055-1.14 4.469-2.951h-2.161Zm-2.336-5.718c1.37 0 2.271.965 2.317 2.491h-4.735c.101-1.507 1.057-2.491 2.418-2.491Zm7.614-4.046v2.528h-1.591v1.775h1.591v5.544c0 1.94.919 2.713 3.227 2.713.441 0 .864-.037 1.195-.101v-1.747c-.276.027-.45.046-.772.046-.956 0-1.379-.45-1.379-1.453v-5.002h2.151v-1.775h-2.151v-2.528h-2.271Zm7.861.781c.754 0 1.37-.597 1.37-1.351 0-.745-.616-1.352-1.37-1.352-.745 0-1.361.607-1.361 1.352 0 .754.616 1.352 1.361 1.352ZM156.152 84h2.271V73.95h-2.271V84Zm5.103 0h2.28v-5.857c0-1.508.856-2.455 2.216-2.455 1.389 0 2.032.781 2.032 2.345V84h2.281v-6.5c0-2.391-1.223-3.743-3.467-3.743-1.498 0-2.51.68-2.988 1.802h-.156V73.95h-2.198V84Zm15.833 3.825c2.934 0 4.791-1.462 4.791-3.77V73.95h-2.198v1.61h-.156c-.552-1.095-1.747-1.775-3.117-1.775-2.565 0-4.156 2.004-4.156 5.084 0 3.016 1.581 4.984 4.119 4.984 1.398 0 2.492-.589 3.071-1.674h.157v1.913c0 1.278-.911 2.032-2.474 2.032-1.25 0-2.059-.45-2.207-1.159h-2.289c.184 1.73 1.876 2.86 4.459 2.86Zm0-5.784c-1.59 0-2.491-1.232-2.491-3.18 0-1.94.901-3.173 2.491-3.173 1.582 0 2.547 1.232 2.547 3.181 0 1.94-.956 3.172-2.547 3.172Z" fill="#fff"/></g><path transform="rotate(-180 300 217)" fill="url(#i)" d="M300 217h251v26H300z"/><path transform="rotate(-180 315.823 133)" fill="url(#j)" d="M315.823 133h223v26h-223z"/><path transform="rotate(-180 469 175)" fill="url(#k)" d="M469 175h223v26H469z"/><path transform="rotate(-180 385.823 49)" fill="url(#l)" d="M385.823 49h223v26h-223z"/><path transform="rotate(-180 328.823 301)" fill="url(#m)" d="M328.823 301h223v26h-223z"/><path transform="rotate(-180 356 259)" fill="url(#n)" d="M356 259h199v26H356z"/><path transform="rotate(-180 410 91)" fill="url(#o)" d="M410 91h223v26H410z"/><g clip-path="url(#p)"><rect x="16" y="233" width="161.215" height="26" rx="4" fill="#2684FF"/><g clip-path="url(#q)"><g clip-path="url(#r)"><g clip-path="url(#s)" fill="#fff" fill-opacity=".85"><path d="M16 239.277h25.108v6.277H16zM16 251.831h25.108v6.277H16z"/></g></g></g><path d="M63.886 250.005H57.67v-3.798h5.876v-1.885H57.67v-3.595h6.216v-1.995h-8.588V252h8.588v-1.995ZM66.59 252h2.28v-5.857c0-1.508.856-2.455 2.217-2.455 1.388 0 2.032.782 2.032 2.345V252h2.28v-6.501c0-2.39-1.223-3.742-3.466-3.742-1.5 0-2.51.681-2.989 1.802h-.156v-1.609h-2.198V252Zm15.834 3.825c2.933 0 4.79-1.462 4.79-3.77V241.95h-2.197v1.609h-.157c-.551-1.094-1.747-1.774-3.117-1.774-2.565 0-4.156 2.004-4.156 5.084 0 3.016 1.582 4.984 4.12 4.984 1.397 0 2.491-.589 3.07-1.674h.157v1.913c0 1.278-.91 2.032-2.474 2.032-1.25 0-2.06-.451-2.206-1.159h-2.29c.184 1.729 1.876 2.86 4.46 2.86Zm0-5.783c-1.591 0-2.492-1.233-2.492-3.182 0-1.94.901-3.172 2.492-3.172 1.581 0 2.547 1.232 2.547 3.181 0 1.94-.957 3.173-2.547 3.173Zm8.753-9.774c.754 0 1.37-.598 1.37-1.352 0-.745-.616-1.352-1.37-1.352-.745 0-1.36.607-1.36 1.352 0 .754.615 1.352 1.36 1.352ZM90.046 252h2.27v-10.05h-2.27V252Zm5.102 0h2.28v-5.857c0-1.508.856-2.455 2.216-2.455 1.389 0 2.032.782 2.032 2.345V252h2.281v-6.501c0-2.39-1.223-3.742-3.467-3.742-1.498 0-2.51.681-2.988 1.802h-.156v-1.609h-2.198V252Zm18.068-2.749c-.331.754-1.113 1.177-2.244 1.177-1.498 0-2.464-1.067-2.519-2.768v-.119h7.025v-.727c0-3.154-1.72-5.057-4.588-5.057-2.915 0-4.727 2.032-4.727 5.259 0 3.219 1.784 5.186 4.745 5.186 2.372 0 4.055-1.14 4.469-2.951h-2.161Zm-2.336-5.719c1.37 0 2.271.965 2.317 2.491h-4.735c.101-1.507 1.057-2.491 2.418-2.491Zm13.443 5.719c-.331.754-1.113 1.177-2.244 1.177-1.498 0-2.464-1.067-2.519-2.768v-.119h7.025v-.727c0-3.154-1.72-5.057-4.588-5.057-2.915 0-4.726 2.032-4.726 5.259 0 3.219 1.783 5.186 4.744 5.186 2.372 0 4.055-1.14 4.469-2.951h-2.161Zm-2.335-5.719c1.37 0 2.271.965 2.317 2.491h-4.736c.101-1.507 1.058-2.491 2.419-2.491Zm6.886 8.468h2.281v-5.839c0-1.416 1.029-2.335 2.51-2.335.386 0 .993.064 1.168.129v-2.078c-.212-.056-.617-.092-.948-.092-1.296 0-2.381.735-2.657 1.728h-.156v-1.563h-2.198V252Zm8.993-11.732c.754 0 1.37-.598 1.37-1.352 0-.745-.616-1.352-1.37-1.352-.745 0-1.361.607-1.361 1.352 0 .754.616 1.352 1.361 1.352ZM136.736 252h2.271v-10.05h-2.271V252Zm5.103 0h2.28v-5.857c0-1.508.855-2.455 2.216-2.455 1.389 0 2.032.782 2.032 2.345V252h2.28v-6.501c0-2.39-1.222-3.742-3.466-3.742-1.499 0-2.51.681-2.988 1.802h-.157v-1.609h-2.197V252Zm15.833 3.825c2.933 0 4.791-1.462 4.791-3.77V241.95h-2.198v1.609h-.156c-.552-1.094-1.747-1.774-3.117-1.774-2.566 0-4.156 2.004-4.156 5.084 0 3.016 1.581 4.984 4.119 4.984 1.398 0 2.492-.589 3.071-1.674h.156v1.913c0 1.278-.91 2.032-2.473 2.032-1.251 0-2.06-.451-2.207-1.159h-2.289c.184 1.729 1.875 2.86 4.459 2.86Zm0-5.783c-1.59 0-2.492-1.233-2.492-3.182 0-1.94.902-3.172 2.492-3.172 1.582 0 2.547 1.232 2.547 3.181 0 1.94-.956 3.173-2.547 3.173Z" fill="#fff"/></g></g><defs><clipPath id="a"><path fill="#fff" d="M0 0h300v324H0z"/></clipPath><clipPath id="b"><rect x="121.108" y="149" width="124.215" height="26" rx="4" fill="#fff"/></clipPath><clipPath id="c"><path fill="#fff" d="M121.108 149h25.108v25.108h-25.108z"/></clipPath><clipPath id="d"><path fill="#fff" d="M121.108 149h25.108v25.108h-25.108z"/></clipPath><clipPath id="e"><path fill="#fff" d="M121.108 149h25.108v25.108h-25.108z"/></clipPath><clipPath id="f"><rect x="52.5" y="65" width="144.215" height="26" rx="4" fill="#fff"/></clipPath><clipPath id="g"><path fill="#fff" d="M52.5 65h25.108v25.108H52.5z"/></clipPath><clipPath id="h"><path fill="#fff" d="M52.5 65h25.108v25.108H52.5z"/></clipPath><clipPath id="p"><rect x="16" y="233" width="161.215" height="26" rx="4" fill="#fff"/></clipPath><clipPath id="q"><path fill="#fff" d="M16 233h25.108v25.108H16z"/></clipPath><clipPath id="r"><path fill="#fff" d="M16 233h25.108v25.108H16z"/></clipPath><clipPath id="s"><path fill="#fff" d="M16 233h25.108v25.108H16z"/></clipPath><linearGradient id="i" x1="561.606" y1="243" x2="319.444" y2="243" gradientUnits="userSpaceOnUse"><stop offset=".094" stop-color="#fff" stop-opacity="0"/><stop offset=".495" stop-color="#fff" stop-opacity=".2"/><stop offset=".943" stop-color="#fff" stop-opacity="0"/></linearGradient><linearGradient id="j" x1="548.246" y1="159" x2="333.098" y2="159" gradientUnits="userSpaceOnUse"><stop offset=".063" stop-color="#fff" stop-opacity="0"/><stop offset=".517" stop-color="#fff" stop-opacity=".2"/><stop offset=".943" stop-color="#fff" stop-opacity="0"/></linearGradient><linearGradient id="k" x1="701.423" y1="201" x2="486.275" y2="201" gradientUnits="userSpaceOnUse"><stop offset=".063" stop-color="#fff" stop-opacity="0"/><stop offset=".517" stop-color="#fff" stop-opacity=".2"/><stop offset=".943" stop-color="#fff" stop-opacity="0"/></linearGradient><linearGradient id="l" x1="618.246" y1="75" x2="403.098" y2="75" gradientUnits="userSpaceOnUse"><stop offset=".063" stop-color="#fff" stop-opacity="0"/><stop offset=".594" stop-color="#fff" stop-opacity=".2"/><stop offset=".943" stop-color="#fff" stop-opacity="0"/></linearGradient><linearGradient id="m" x1="561.246" y1="327" x2="346.098" y2="327" gradientUnits="userSpaceOnUse"><stop offset=".063" stop-color="#fff" stop-opacity="0"/><stop offset=".517" stop-color="#fff" stop-opacity=".2"/><stop offset=".943" stop-color="#fff" stop-opacity="0"/></linearGradient><linearGradient id="n" x1="563.408" y1="285" x2="371.415" y2="285" gradientUnits="userSpaceOnUse"><stop offset=".161" stop-color="#fff" stop-opacity="0"/><stop offset=".625" stop-color="#fff" stop-opacity=".2"/><stop offset=".943" stop-color="#fff" stop-opacity="0"/></linearGradient><linearGradient id="o" x1="642.423" y1="117" x2="427.275" y2="117" gradientUnits="userSpaceOnUse"><stop offset=".089" stop-color="#fff" stop-opacity="0"/><stop offset=".609" stop-color="#fff" stop-opacity=".2"/><stop offset=".943" stop-color="#fff" stop-opacity="0"/></linearGradient></defs></svg>