<svg xmlns="http://www.w3.org/2000/svg" width="18" height="18" fill="none"><path d="M13.498 9.667a3.86 3.86 0 0 1 1.838-3.238 3.951 3.951 0 0 0-3.113-1.683c-1.31-.138-2.58.784-3.247.784-.68 0-1.708-.77-2.814-.748A4.146 4.146 0 0 0 2.673 6.91c-1.508 2.611-.383 6.45 1.062 8.56.723 1.034 1.567 2.189 2.673 2.148 1.082-.045 1.486-.69 2.792-.69 1.293 0 1.672.69 2.8.664 1.161-.02 1.893-1.039 2.59-2.082a8.55 8.55 0 0 0 1.184-2.412 3.73 3.73 0 0 1-2.276-3.431ZM11.367 3.358a3.8 3.8 0 0 0 .87-2.723A3.866 3.866 0 0 0 9.734 1.93a3.616 3.616 0 0 0-.892 2.621c.98.01 1.91-.43 2.524-1.193Z" fill="#000"/></svg>