<svg xmlns="http://www.w3.org/2000/svg" width="289" height="951" fill="none"><g clip-path="url(#a)"><g opacity=".2" fill="#fff"><path fill-opacity=".01" d="M17 717h80v80H17z"/><path fill-rule="evenodd" clip-rule="evenodd" d="M33.65 733.667h46.7a6.652 6.652 0 0 1 6.65 6.646v40.04a6.65 6.65 0 0 1-4.105 6.142 6.652 6.652 0 0 1-2.545.505h-46.7a6.648 6.648 0 0 1-6.65-6.647v-40.04a6.646 6.646 0 0 1 6.65-6.646ZM33.667 747v30A3.333 3.333 0 0 0 37 780.333h40A3.333 3.333 0 0 0 80.333 777v-30H33.667ZM37 730.333a3.333 3.333 0 1 1 6.667 0v3.334H37v-3.334Zm33.333 0a3.333 3.333 0 1 1 6.667 0v3.334h-6.667v-3.334Zm-30 30v-6.67H47v6.67h-6.667Zm26.667 0v-6.67h6.667v6.67H67Zm-13.333 0v-6.67h6.67v6.67h-6.67Zm-13.334 13.334V767H47v6.667h-6.667Zm13.334 0V767h6.67v6.667h-6.67Zm13.333 0V767h6.667v6.667H67Z"/></g><circle opacity=".4" cx="31" cy="616" r="4" fill="#fff"/><circle opacity=".4" cx="2" cy="430" r="4" fill="#fff"/><circle opacity=".4" cx="75" cy="489" r="8" fill="#fff"/><circle opacity=".4" cx="15" cy="896" r="8" fill="#fff"/><g opacity=".2" fill-rule="evenodd" clip-rule="evenodd" fill="#fff"><path d="M30 270.333h23.333a8.333 8.333 0 0 1 0 16.667H30a8.333 8.333 0 1 1 0-16.667Zm23.333 10a1.666 1.666 0 1 0 0-3.333H30a1.667 1.667 0 1 0 0 3.333h23.333ZM36.667 290.333H60A8.333 8.333 0 0 1 60 307H36.667a8.333 8.333 0 0 1 0-16.667Zm23.333 10A1.666 1.666 0 1 0 60 297H36.667a1.667 1.667 0 0 0 0 3.333H60ZM76.667 310.333H53.333a8.333 8.333 0 0 0 0 16.667h23.334a8.333 8.333 0 0 0 0-16.667Zm-23.334 10a1.666 1.666 0 1 1 0-3.333h23.334a1.667 1.667 0 0 1 0 3.333H53.333ZM73.333 270.333H80A8.333 8.333 0 0 1 80 287h-6.667a8.333 8.333 0 0 1 0-16.667Zm6.667 10A1.666 1.666 0 1 0 80 277h-6.667a1.667 1.667 0 1 0 0 3.333H80Z"/></g><path fill-rule="evenodd" clip-rule="evenodd" d="M246.529 70.566a23.228 23.228 0 0 1 2.804 11.1v5.667a1 1 0 0 1-1 1h-44.666a1 1 0 0 1-1-1v-5.666c0-12.887 10.446-23.334 23.333-23.334 4.018 0 7.799 1.016 11.1 2.805l3.04-3.04a6.638 6.638 0 0 1 2.327-1.512A29.86 29.86 0 0 0 226 51.666c-16.569 0-30 13.432-30 30V93a2 2 0 0 0 2 2h56a2 2 0 0 0 2-2V81.667a29.86 29.86 0 0 0-4.92-16.468 6.63 6.63 0 0 1-1.512 2.328l-3.039 3.039ZM229.333 65a3.333 3.333 0 1 1-6.666 0 3.333 3.333 0 0 1 6.666 0Zm10.663 7.384-11.639 11.64-1.65 1.65a1 1 0 0 1-1.414 0l-1.65-1.65-1.65-1.65a1 1 0 0 1 0-1.415l1.65-1.65 18.854-18.853 1.65-1.65a1 1 0 0 1 1.414 0l1.65 1.65 1.65 1.65a1 1 0 0 1 0 1.414l-1.65 1.65-7.16 7.16a1.876 1.876 0 0 1-.055.054ZM246 81.667a3.333 3.333 0 1 1-6.666 0 3.333 3.333 0 0 1 6.666 0ZM209.333 85a3.334 3.334 0 1 0 0-6.668 3.334 3.334 0 0 0 0 6.668Zm8.334-15a3.334 3.334 0 1 1-6.668-.001 3.334 3.334 0 0 1 6.668.001Z" fill="#fff" opacity=".2"/><circle opacity=".4" cx="61" cy="83" r="8" fill="#fff"/><circle opacity=".4" cx="134" cy="184" r="4" fill="#fff"/></g><defs><clipPath id="a"><path fill="#fff" d="M0 0h289v951H0z"/></clipPath></defs></svg>