<svg xmlns="http://www.w3.org/2000/svg" width="289" height="951" fill="none"><g clip-path="url(#a)"><path fill-rule="evenodd" clip-rule="evenodd" d="M232.333 482.333a6.665 6.665 0 0 1-6.666-6.666v-33.334a6.665 6.665 0 0 1 6.666-6.666h53.334a6.665 6.665 0 0 1 6.666 6.666v33.334a6.665 6.665 0 0 1-6.666 6.666h-53.334Zm53.334-20v-6.666h-33.334v6.666h33.334Zm0-13.333v-6.667h-33.334V449h33.334Zm0 20v6.667h-33.334V469h33.334Zm-53.334-13.333v6.666h13.334v-6.666h-13.334Zm0 13.333v6.667h13.334V469h-13.334Zm0-20v-6.667h13.334V449h-13.334Z" fill="#fff" opacity=".2"/><g opacity=".2" fill="#fff"><path fill-opacity=".01" d="M183 825h80v80h-80z"/><path fill-rule="evenodd" clip-rule="evenodd" d="M223 895c-7.6 0-20-28.953-20-40a20 20 0 0 1 40 0c0 11.047-12.4 40-20 40Zm0-30a9.705 9.705 0 1 0 0-19.413A9.707 9.707 0 1 0 223 865Z"/></g><circle opacity=".4" cx="263" cy="737" r="4" fill="#fff"/><circle opacity=".4" cx="213" cy="622" r="8" fill="#fff"/><g opacity=".2" fill-rule="evenodd" clip-rule="evenodd" fill="#fff"><path d="M133.667 114.333V141a6.666 6.666 0 0 0 6.666 6.667H147a6.667 6.667 0 0 0 6.667-6.667v-26.667a6.666 6.666 0 0 0-6.667-6.666h-6.667a6.665 6.665 0 0 0-6.666 6.666Zm6.666 0V141H147v-26.667h-6.667ZM157 114.333v20a6.667 6.667 0 0 0 6.667 6.667h6.666a6.667 6.667 0 0 0 6.667-6.667v-20a6.666 6.666 0 0 0-6.667-6.666h-6.666a6.666 6.666 0 0 0-6.667 6.666Zm6.667 0v20h6.666v-20h-6.666ZM180.333 147.667v-33.334a6.666 6.666 0 0 1 6.667-6.666h6.667a6.665 6.665 0 0 1 6.666 6.666v33.334a6.665 6.665 0 0 1-6.666 6.666H187a6.666 6.666 0 0 1-6.667-6.666Zm6.667 0v-33.334h6.667v33.334H187Z"/></g><circle opacity=".4" cx="229" cy="47" r="4" fill="#fff"/><circle opacity=".4" cx="144" cy="220" r="4" fill="#fff"/><circle opacity=".4" cx="48" cy="70" r="8" fill="#fff"/><circle opacity=".4" cx="234" cy="284" r="8" fill="#fff"/></g><defs><clipPath id="a"><path fill="#fff" d="M0 0h289v951H0z"/></clipPath></defs></svg>