<svg xmlns="http://www.w3.org/2000/svg" width="35.28mm" height="51.893" viewBox="0 0 35.28 13.73" fill="#172b4d">
	<defs>
		<clipPath id="a">
			<path d="M53.38 69.29h100v38.91h-100z"/>
		</clipPath>
	</defs>
	<path d="m0 0-16.86-9.739v-8.609L0-8.541l9.483-5.44-1.886-1.097L0-10.71l-6.606-3.821 15.1-8.742 8.369 4.9v8.633z" transform="matrix(.3526 0 0 -.3528 5.954 -.003)"/>
	<path transform="matrix(.3526 0 0 -.3528 .01 7.244)" d="M0 0v-8.656l16.86-9.718 16.86 9.718v8.632L16.86-9.833 7.377-4.392l1.888 1.096 7.595-4.367 6.606 3.82L8.366 4.9z"/>
	<g clip-path="url(#a)" transform="matrix(.3526 0 0 -.3528 -18.812 38.17)">
		<path d="M0 0c-2.049 0-3.667-.709-4.856-2.124-1.137-1.341-1.707-3.035-1.707-5.083 0-2.049.57-3.743 1.707-5.083 1.189-1.417 2.807-2.125 4.856-2.125 2.023 0 3.665.708 4.931 2.125 1.188 1.34 1.783 3.034 1.783 5.083 0 2.048-.595 3.742-1.783 5.083C3.665-.709 2.023 0 0 0m-6.411-.758C-4.895 1.467-2.631 2.58.379 2.58c2.732 0 4.944-.949 6.639-2.846 1.693-1.871 2.541-4.185 2.541-6.941 0-2.757-.848-5.071-2.541-6.941-1.695-1.897-3.971-2.846-6.829-2.846-2.857 0-5.058 1.124-6.6 3.376v-10.58h-2.845v26.48h2.845z" transform="translate(110.4 96.15)"/>
		<path d="M0 0v16.46h-3.87v2.503H0v6.79h2.845v-6.79h4.362V16.46H2.845V0z" transform="translate(125.8 79.46)"/>
		<path d="M0 0c1.214 0 2.289.341 3.224 1.025A5.9 5.9 0 0 1 5.272 3.68h3.073C7.764 1.808 6.702.303 5.159-.834 3.541-1.998 1.618-2.579-.606-2.579c-2.784 0-5.047.948-6.791 2.845-1.694 1.846-2.542 4.159-2.542 6.942 0 2.781.848 5.095 2.542 6.941 1.744 1.896 4.007 2.845 6.791 2.845 2.224 0 4.147-.582 5.765-1.745 1.543-1.138 2.605-2.643 3.186-4.514H5.272a5.905 5.905 0 0 1-2.048 2.655c-.935.684-2.01 1.025-3.224 1.025-1.215 0-2.244-.191-3.092-.569a6.215 6.215 0 0 1-2.143-1.556c-1.24-1.365-1.858-3.06-1.858-5.082 0-2.024.618-3.718 1.858-5.084C-3.971.708-2.226 0 0 0" transform="translate(145 81.74)"/>
	</g>
</svg>