<svg xmlns="http://www.w3.org/2000/svg" width="409" height="66" fill="#172b4d"><path d="M27.213.513 0 53.921h12.643L39.856.513H27.213M181.167 40.82a8.756 8.756 0 0 1-1.393 2.819 6.878 6.878 0 0 1-2.354 1.983c-.95.495-2.044.742-3.282.742-1.364 0-2.5-.287-3.408-.867a6.853 6.853 0 0 1-2.197-2.23 9.174 9.174 0 0 1-1.177-3.065 17.283 17.283 0 0 1-.343-3.439c0-1.197.133-2.343.403-3.437.27-1.094.704-2.065 1.301-2.911a6.722 6.722 0 0 1 2.23-2.014c.887-.495 1.951-.742 3.191-.742 1.445 0 2.641.268 3.592.805a6.41 6.41 0 0 1 2.291 2.167c.58.91.993 1.952 1.24 3.128a18.22 18.22 0 0 1 .37 3.748c0 1.156-.153 2.261-.464 3.313Zm2.638-18.923-2.174 4.267h-.128c-1.073-1.854-2.402-3.173-3.99-3.957-1.591-.784-3.438-1.177-5.542-1.177-2.231 0-4.204.433-5.916 1.301a12.727 12.727 0 0 0-4.307 3.501c-1.154 1.465-2.034 3.158-2.631 5.078a19.928 19.928 0 0 0-.898 5.977c0 2.189.258 4.265.774 6.226.517 1.962 1.331 3.676 2.447 5.141 1.114 1.465 2.539 2.622 4.272 3.468 1.734.847 3.801 1.271 6.196 1.271 1.94 0 3.788-.404 5.542-1.209 1.757-.806 3.108-2.053 4.058-3.746h.123v4.211c0 4.965-2.346 7.866-6.983 7.866-4.561 0-7.141-2.026-8.458-3.646l-3.205 6.292S166.58 66 173.395 66c11.305 0 16.599-5.456 16.599-14.123v-29.98h-6.189ZM66.544 9.694v16.662h.187c1.114-1.857 2.538-3.208 4.274-4.055 1.734-.847 3.426-1.27 5.079-1.27 2.354 0 4.282.32 5.792.96 1.507.64 2.694 1.528 3.561 2.664.867 1.134 1.475 2.518 1.827 4.148.351 1.634.527 3.439.527 5.422v19.696h-8.796V35.835c0-2.643-.413-4.615-1.24-5.915-.827-1.303-2.291-1.953-4.396-1.953-2.397 0-4.13.713-5.204 2.137-1.074 1.427-1.611 3.771-1.611 7.032v16.785h-8.796V9.694h8.796m32.912 31.994c.247 1.217.67 2.313 1.271 3.284a6.736 6.736 0 0 0 2.384 2.321c.99.58 2.23.867 3.715.867 1.487 0 2.737-.287 3.747-.867a6.682 6.682 0 0 0 2.418-2.321c.597-.971 1.02-2.067 1.27-3.284.247-1.218.37-2.468.37-3.748 0-1.28-.123-2.538-.37-3.778-.25-1.24-.673-2.331-1.27-3.285a7.09 7.09 0 0 0-2.418-2.321c-1.01-.597-2.26-.896-3.747-.896-1.485 0-2.725.299-3.715.896a7.156 7.156 0 0 0-2.384 2.321c-.601.954-1.024 2.045-1.271 3.285a19.284 19.284 0 0 0-.373 3.778c0 1.28.126 2.53.373 3.748Zm-7.99-10.717c.785-2.084 1.898-3.858 3.345-5.325 1.444-1.467 3.178-2.602 5.202-3.408 2.024-.804 4.295-1.207 6.813-1.207 2.52 0 4.801.403 6.845 1.207 2.044.806 3.788 1.941 5.235 3.408 1.444 1.467 2.558 3.241 3.344 5.325.784 2.087 1.177 4.408 1.177 6.969s-.393 4.874-1.177 6.938c-.786 2.065-1.9 3.831-3.344 5.296-1.447 1.467-3.191 2.591-5.235 3.374-2.044.785-4.325 1.178-6.845 1.178-2.518 0-4.789-.393-6.813-1.178-2.024-.783-3.758-1.907-5.202-3.374-1.447-1.465-2.56-3.231-3.345-5.296-.786-2.064-1.176-4.377-1.176-6.938s.39-4.882 1.176-6.969Zm55.966 22.95v-4.46h-.186c-1.114 1.86-2.561 3.201-4.335 4.027-1.777.824-3.594 1.238-5.452 1.238-2.354 0-4.285-.31-5.792-.928-1.507-.62-2.694-1.497-3.561-2.633-.867-1.135-1.477-2.518-1.827-4.149-.351-1.634-.527-3.438-.527-5.422V21.898h8.796v18.086c0 2.643.413 4.615 1.24 5.915.824 1.301 2.291 1.951 4.398 1.951 2.395 0 4.128-.711 5.202-2.138 1.074-1.423 1.611-3.764 1.611-7.029V21.898h8.796v32.023h-8.363m54.643-44.227v16.662h.187c1.114-1.857 2.538-3.208 4.274-4.055 1.734-.847 3.425-1.27 5.079-1.27 2.354 0 4.282.32 5.792.96 1.507.64 2.694 1.528 3.561 2.664.867 1.134 1.474 2.518 1.827 4.148.351 1.634.527 3.439.527 5.422v19.696h-8.796V35.835c0-2.643-.414-4.615-1.24-5.915-.827-1.303-2.291-1.953-4.396-1.953-2.397 0-4.131.713-5.204 2.137-1.074 1.427-1.611 3.771-1.611 7.032v16.785h-8.796V9.694h8.796m96.379 31.994c.25 1.217.671 2.313 1.271 3.284a6.758 6.758 0 0 0 2.383 2.321c.994.58 2.232.867 3.718.867 1.487 0 2.736-.287 3.748-.867a6.654 6.654 0 0 0 2.414-2.321c.601-.971 1.024-2.067 1.271-3.284.247-1.218.373-2.468.373-3.748 0-1.28-.126-2.538-.373-3.778-.247-1.24-.67-2.331-1.271-3.285-.596-.947-1.403-1.72-2.414-2.321-1.012-.597-2.261-.896-3.748-.896-1.486 0-2.724.299-3.718.896a7.181 7.181 0 0 0-2.383 2.321c-.6.954-1.021 2.045-1.271 3.285a19.282 19.282 0 0 0-.37 3.778c0 1.28.123 2.53.37 3.748Zm-7.989-10.717c.784-2.084 1.897-3.858 3.345-5.325 1.444-1.467 3.18-2.602 5.204-3.408 2.021-.804 4.292-1.207 6.812-1.207 2.519 0 4.802.403 6.846 1.207 2.044.806 3.788 1.941 5.232 3.408 1.447 1.467 2.561 3.241 3.345 5.325.783 2.087 1.177 4.408 1.177 6.969s-.394 4.874-1.177 6.938c-.784 2.065-1.898 3.831-3.345 5.296-1.444 1.467-3.188 2.591-5.232 3.374-2.044.785-4.327 1.178-6.846 1.178-2.52 0-4.791-.393-6.812-1.178-2.024-.783-3.76-1.907-5.204-3.374-1.448-1.465-2.561-3.231-3.345-5.296-.784-2.064-1.177-4.377-1.177-6.938s.393-4.882 1.177-6.969ZM358.728 9.694v23.724l11.087-11.52h10.407l-12.078 11.768 13.441 20.255h-10.653l-8.796-14.307-3.408 3.281v11.026h-8.796V9.694h8.796"/><path d="M388.085 45.962a5.17 5.17 0 0 0 1.518 1.671c.62.434 1.333.754 2.137.96.807.207 1.641.311 2.508.311.62 0 1.27-.07 1.953-.217a6.609 6.609 0 0 0 1.858-.681 4.237 4.237 0 0 0 1.393-1.24c.371-.514.558-1.164.558-1.95 0-1.321-.878-2.312-2.632-2.975-1.757-.657-4.204-1.32-7.342-1.98a42.992 42.992 0 0 1-3.748-1.024c-1.217-.39-2.301-.907-3.251-1.547a7.521 7.521 0 0 1-2.291-2.414c-.58-.971-.867-2.159-.867-3.562 0-2.066.403-3.758 1.207-5.081a8.928 8.928 0 0 1 3.191-3.128c1.321-.764 2.808-1.3 4.458-1.61a27.48 27.48 0 0 1 5.079-.464c1.737 0 3.417.166 5.048.496 1.631.33 3.088.888 4.368 1.671a10.015 10.015 0 0 1 3.191 3.128c.845 1.3 1.351 2.944 1.517 4.925h-8.362c-.124-1.694-.763-2.838-1.921-3.438-1.157-.598-2.517-.897-4.088-.897-.494 0-1.033.03-1.61.09a5.494 5.494 0 0 0-1.581.404 3.257 3.257 0 0 0-1.207.9c-.33.391-.494.917-.494 1.577 0 .786.288 1.427.867 1.921.577.496 1.331.898 2.261 1.207.927.31 1.991.59 3.188.837s2.417.517 3.655.807c1.28.287 2.531.639 3.748 1.05 1.217.414 2.3.96 3.251 1.644a7.959 7.959 0 0 1 2.293 2.538c.578 1.013.868 2.261.868 3.747 0 2.108-.424 3.872-1.271 5.296a10.15 10.15 0 0 1-3.314 3.438c-1.361.867-2.921 1.476-4.675 1.827-1.757.35-3.541.527-5.358.527-1.858 0-3.678-.184-5.453-.558-1.774-.37-3.354-.99-4.738-1.857a10.646 10.646 0 0 1-3.407-3.437c-.887-1.424-1.371-3.211-1.454-5.359h8.362c0 .95.194 1.765.587 2.447M241.934 47.356c-1.487 0-2.478-.249-2.974-.743-.494-.497-.741-1.487-.741-2.975V27.783h4.906l2.999-5.885h-7.905v-9.601h-8.796v9.601h-4.405l-2.992 5.871 7.397.014v18.89c0 1.611.267 2.911.804 3.904.537.991 1.27 1.755 2.2 2.291.928.537 2.002.897 3.221 1.084 1.217.186 2.508.28 3.872.28.867 0 1.753-.023 2.661-.064.91-.04 1.737-.123 2.477-.247v-6.814c-.413.083-.846.145-1.3.186-.454.042-.927.063-1.424.063m-189.667 0c-1.488 0-2.478-.249-2.975-.743-.494-.497-.741-1.487-.741-2.975V27.783h4.526l2.999-5.885h-7.525v-9.601h-8.796v9.601H35.35l-2.992 5.871 7.397.014v18.89c0 1.611.267 2.911.804 3.904.537.991 1.271 1.755 2.2 2.291.928.537 2.002.897 3.221 1.084 1.218.186 2.508.28 3.872.28.867 0 1.754-.023 2.661-.064.91-.04 1.737-.123 2.478-.247v-6.814c-.413.083-.847.145-1.301.186a15.42 15.42 0 0 1-1.423.063m290.808-26.325c-7.399 0-10.221 6.812-10.221 6.812h-.123v-5.945h-8.363v32.023h8.796V40.493l.001.004c0-7.808 1.517-11.281 8.164-11.281 1.371 0 2.504.313 3.442.819l3.772-7.405c-1.44-.929-3.241-1.599-5.468-1.599"/><path d="m281.899 21.898-5.884 21.68h-.124l-5.45-21.68h-8.548l-5.329 21.74h-.123l-5.882-21.74-5.727 11.239 6.594 20.784h9.103l5.451-21.493h.124l5.699 21.493h9.043l10.096-32.023h-9.043"/></svg>