<svg xmlns="http://www.w3.org/2000/svg" width="84" height="36" viewBox="0 0 84 36" fill="#172b4d">
<path d="M10.8167 2.37402H12.1633L9.76819 9.45552H8.7508L7.63099 5.41708L6.53167 9.45628H5.5029L3.11914 2.37402H4.46579L6.02791 7.32819L7.13785 3.35044H8.13476L9.2447 7.34867L10.8167 2.37402Z"/>
<path d="M13.5234 5.91994C13.5234 3.91627 15.0962 2.25098 17.1211 2.25098C19.1354 2.25098 20.7187 3.91627 20.7187 5.91994C20.7187 7.92437 19.1361 9.57904 17.1211 9.57904C15.0962 9.5798 13.5234 7.92437 13.5234 5.91994ZM19.4646 5.91994C19.4646 4.56343 18.4677 3.42313 17.1112 3.42313C15.7646 3.42313 14.7882 4.56343 14.7882 5.91994C14.7882 7.27721 15.7646 8.40764 17.1112 8.40764C18.4677 8.40764 19.4646 7.27721 19.4646 5.91994Z"/>
<path d="M31.092 9.45649H29.8379L29.2727 4.69807L27.3608 8.65457H26.3435L24.4217 4.70793L23.8459 9.45649H22.5918L23.4552 2.375H24.5446L26.8472 7.24723L29.1392 2.375H30.2286L31.092 9.45649Z"/>
<path d="M34.6829 8.33571H37.8899V9.45552H33.4395V2.37402H37.7867V3.49459H34.6829V5.4057H37.396V6.54751H34.6829V8.33571Z"/>
<path d="M44.1922 2.37402H45.4463V9.45552H44.3053L41.4784 4.68647V9.45552H40.2251V2.37402H41.4071L44.1922 7.1021V2.37402V2.37402Z"/>
<path d="M58.2981 2.37402H59.644L57.2496 9.45552H56.2322L55.1117 5.41708L54.0124 9.45628H52.9851L50.6006 2.37478H51.9472L53.5094 7.32895L54.6193 3.3512H55.6162L56.7261 7.34943L58.2981 2.37402Z"/>
<path d="M65.7843 2.37402H67.0384V9.45552H65.7843V6.49592H62.8444V9.45628H61.5903V2.37402H62.8444V5.37535H65.7843V2.37402Z"/>
<path d="M69.3125 5.91994C69.3125 3.91627 70.8852 2.25098 72.9102 2.25098C74.9244 2.25098 76.5078 3.91627 76.5078 5.91994C76.5078 7.92437 74.9252 9.57904 72.9102 9.57904C70.8852 9.5798 69.3125 7.92437 69.3125 5.91994ZM75.2529 5.91994C75.2529 4.56343 74.256 3.42313 72.8995 3.42313C71.5529 3.42313 70.5765 4.56343 70.5765 5.91994C70.5765 7.27721 71.5529 8.40764 72.8995 8.40764C74.256 8.40764 75.2529 7.27721 75.2529 5.91994Z"/>
<path d="M3.10449 24.016C3.10449 18.6688 7.38192 14.2275 12.701 14.2275C15.7994 14.2275 18.514 15.6804 20.2134 17.9018L17.6908 19.8213C16.5392 18.313 14.8397 17.3533 12.7829 17.3533C9.19136 17.3533 6.47681 20.3971 6.47681 24.016C6.47681 27.6349 9.13674 30.6506 12.7837 30.6506C14.8405 30.6506 16.5399 29.6909 17.6916 28.1834L20.2142 30.1029C18.514 32.3235 15.8002 33.7771 12.7018 33.7771C7.38191 33.7764 3.10449 29.3616 3.10449 24.016Z"/>
<path d="M21.9146 24.016C21.9146 18.6688 26.1093 14.2275 31.5111 14.2275C36.8848 14.2275 41.1076 18.6688 41.1076 24.016C41.1076 29.3624 36.8848 33.7764 31.5111 33.7764C26.1093 33.7764 21.9146 29.3616 21.9146 24.016ZM37.7618 24.016C37.7618 20.3971 35.1026 17.3533 31.483 17.3533C27.8914 17.3533 25.2869 20.3971 25.2869 24.016C25.2869 27.6349 27.8914 30.6506 31.483 30.6506C35.1026 30.6506 37.7618 27.6349 37.7618 24.016Z"/>
<path d="M52.1285 14.5566C57.5295 14.5566 60.6833 18.6694 60.6833 24.0431C60.6833 29.3903 57.5303 33.4477 52.1285 33.4477H44.7261V14.5566H52.1285ZM52.1285 30.4585C55.5554 30.4585 57.3103 27.552 57.3103 24.0424C57.3103 20.5062 55.5554 17.5443 52.1285 17.5443H48.0711V30.4585H52.1285Z"/>
<path d="M67.7293 30.4583H76.2834V33.4467H64.4116V14.5557H76.0095V17.5441H67.7293V22.6439H74.9679V25.687H67.7293V30.4583Z"/>
<path d="M82.0002 32.0327C82.0002 33.182 81.0868 34.1122 79.9374 34.1122C78.7887 34.1122 77.8813 33.1813 77.8813 32.0327C77.8813 30.884 78.7887 29.9463 79.9374 29.9463C81.0868 29.9463 82.0002 30.8833 82.0002 32.0327ZM81.6345 32.0327C81.6345 31.0835 80.8804 30.312 79.9374 30.312C78.989 30.312 78.2402 31.0835 78.2402 32.0327C78.2402 32.981 78.9883 33.7473 79.9374 33.7473C80.8804 33.7465 81.6345 32.981 81.6345 32.0327ZM80.2613 32.3505L80.7742 33.0629H80.297L79.8076 32.3733H79.6658V33.0629H79.2356V31.0357H80.0428C80.5026 31.0357 80.7203 31.3544 80.7203 31.6897C80.7211 32.0789 80.5504 32.28 80.2613 32.3505ZM79.6665 31.431V32.0144H79.9905C80.2082 32.0144 80.297 31.8491 80.297 31.7201C80.297 31.5911 80.2082 31.4318 80.0026 31.4318H79.6665V31.431Z"/>
</svg>